G04 #@! TF.GenerationSoftware,KiCad,Pcbnew,9.0.3-unknown-202507311736~b5c2ed30be~ubuntu24.04.1*
G04 #@! TF.CreationDate,2025-08-04T14:24:47+01:00*
G04 #@! TF.ProjectId,Commodore PET Universal Dynamic,436f6d6d-6f64-46f7-9265-205045542055,REV A*
G04 #@! TF.SameCoordinates,Original*
G04 #@! TF.FileFunction,Profile,NP*
%FSLAX46Y46*%
G04 Gerber Fmt 4.6, Leading zero omitted, Abs format (unit mm)*
G04 Created by KiCad (PCBNEW 9.0.3-unknown-202507311736~b5c2ed30be~ubuntu24.04.1) date 2025-08-04 14:24:47*
%MOMM*%
%LPD*%
G01*
G04 APERTURE LIST*
G04 #@! TA.AperFunction,Profile*
%ADD10C,0.050000*%
G04 #@! TD*
G04 #@! TA.AperFunction,Profile*
%ADD11C,0.100000*%
G04 #@! TD*
G04 APERTURE END LIST*
D10*
X86279000Y-325624200D02*
X86253600Y-63956600D01*
X387442800Y-325558000D02*
X86279000Y-325624200D01*
X478963000Y-166242400D02*
X478963000Y-199964200D01*
D11*
X117440232Y-309460231D02*
G75*
G02*
X97359768Y-309460231I-10040232J0D01*
G01*
X97359768Y-309460231D02*
G75*
G02*
X117440232Y-309460231I10040232J0D01*
G01*
D10*
X479451950Y-63956600D02*
X479451950Y-114642400D01*
X479451950Y-166242400D02*
X478963000Y-166242400D01*
X86253600Y-63956600D02*
X479451950Y-63956600D01*
X479000000Y-325600000D02*
X443348400Y-325558000D01*
X478999000Y-313077600D02*
X479000000Y-325600000D01*
X478963000Y-251580200D02*
X478999000Y-286077600D01*
G04 #@! TO.C,J1*
X479451950Y-166242400D02*
X488909950Y-166242400D01*
X480467950Y-127642400D02*
X489611950Y-127642400D01*
X480467950Y-129042400D02*
X480467950Y-127642400D01*
X480620350Y-155542400D02*
X489611950Y-155542400D01*
X480620350Y-156942400D02*
X480620350Y-155542400D01*
X480620350Y-156942400D02*
X489611950Y-156942400D01*
X488899950Y-114652400D02*
X479451950Y-114642400D01*
X489609950Y-115382400D02*
X488899950Y-114652400D01*
X489609950Y-165552400D02*
X488909950Y-166242400D01*
X489609950Y-165552400D02*
X489611950Y-156942400D01*
X489611950Y-127642400D02*
X489609950Y-115382400D01*
X489611950Y-129042400D02*
X480467950Y-129042400D01*
X489611950Y-155542400D02*
X489611950Y-129042400D01*
G04 #@! TO.C,J2*
X478963000Y-251580200D02*
X488621000Y-251580200D01*
X479979000Y-212980200D02*
X489377000Y-212980200D01*
X479979000Y-214380200D02*
X479979000Y-212980200D01*
X480131400Y-240880200D02*
X489377000Y-240880200D01*
X480131400Y-242280200D02*
X480131400Y-240880200D01*
X480131400Y-242280200D02*
X489377000Y-242280200D01*
X488671000Y-199980200D02*
X478963000Y-199964200D01*
X489371000Y-200680200D02*
X488671000Y-199980200D01*
X489371000Y-250830200D02*
X488621000Y-251580200D01*
X489371000Y-250830200D02*
X489377000Y-242280200D01*
X489377000Y-212980200D02*
X489371000Y-200680200D01*
X489377000Y-214380200D02*
X479979000Y-214380200D01*
X489377000Y-240880200D02*
X489377000Y-214380200D01*
G04 #@! TO.C,J3*
X478999000Y-286077600D02*
X488455000Y-286073600D01*
X478999000Y-313077600D02*
X488455000Y-313073600D01*
X479943600Y-302577600D02*
X479943600Y-303877600D01*
X479943600Y-302577600D02*
X489144800Y-302577600D01*
X479943600Y-303877600D02*
X489144800Y-303877600D01*
X489144800Y-302577600D02*
X489145000Y-286783600D01*
X489145000Y-286783600D02*
X488455000Y-286073600D01*
X489145000Y-312383600D02*
X488455000Y-313073600D01*
X489145000Y-312383600D02*
X489144800Y-303877600D01*
G04 #@! TO.C,J6*
X387442800Y-325558000D02*
X390592400Y-325558000D01*
X390592400Y-315036000D02*
X390592400Y-325558000D01*
X390592400Y-315036000D02*
X401692400Y-315036000D01*
X401692400Y-315036000D02*
X401695000Y-324783000D01*
X402470000Y-325558000D02*
X401695000Y-324783000D01*
X402470000Y-325558000D02*
X410892400Y-325558000D01*
X410892400Y-316356800D02*
X410892400Y-325558000D01*
X412192400Y-316356800D02*
X410892400Y-316356800D01*
X412192400Y-316356800D02*
X412192400Y-325558000D01*
X412192400Y-325558000D02*
X427945000Y-325558000D01*
X427945000Y-325558000D02*
X428695000Y-324808000D01*
X428692400Y-315036000D02*
X428695000Y-324808000D01*
X428692400Y-315036000D02*
X439792400Y-315036000D01*
X439792400Y-315036000D02*
X439792400Y-325558000D01*
X439792400Y-325558000D02*
X443348400Y-325558000D01*
G04 #@! TD*
M02*
