G04 #@! TF.GenerationSoftware,KiCad,Pcbnew,9.0.3-unknown-202507311736~b5c2ed30be~ubuntu24.04.1*
G04 #@! TF.CreationDate,2025-08-04T14:24:47+01:00*
G04 #@! TF.ProjectId,Commodore PET Universal Dynamic,436f6d6d-6f64-46f7-9265-205045542055,REV A*
G04 #@! TF.SameCoordinates,Original*
G04 #@! TF.FileFunction,Soldermask,Top*
G04 #@! TF.FilePolarity,Negative*
%FSLAX46Y46*%
G04 Gerber Fmt 4.6, Leading zero omitted, Abs format (unit mm)*
G04 Created by KiCad (PCBNEW 9.0.3-unknown-202507311736~b5c2ed30be~ubuntu24.04.1) date 2025-08-04 14:24:47*
%MOMM*%
%LPD*%
G01*
G04 APERTURE LIST*
G04 Aperture macros list*
%AMRoundRect*
0 Rectangle with rounded corners*
0 $1 Rounding radius*
0 $2 $3 $4 $5 $6 $7 $8 $9 X,Y pos of 4 corners*
0 Add a 4 corners polygon primitive as box body*
4,1,4,$2,$3,$4,$5,$6,$7,$8,$9,$2,$3,0*
0 Add four circle primitives for the rounded corners*
1,1,$1+$1,$2,$3*
1,1,$1+$1,$4,$5*
1,1,$1+$1,$6,$7*
1,1,$1+$1,$8,$9*
0 Add four rect primitives between the rounded corners*
20,1,$1+$1,$2,$3,$4,$5,0*
20,1,$1+$1,$4,$5,$6,$7,0*
20,1,$1+$1,$6,$7,$8,$9,0*
20,1,$1+$1,$8,$9,$2,$3,0*%
%AMRotRect*
0 Rectangle, with rotation*
0 The origin of the aperture is its center*
0 $1 length*
0 $2 width*
0 $3 Rotation angle, in degrees counterclockwise*
0 Add horizontal line*
21,1,$1,$2,0,0,$3*%
G04 Aperture macros list end*
%ADD10C,11.501754*%
%ADD11C,1.600000*%
%ADD12O,1.600000X1.600000*%
%ADD13C,1.500000*%
%ADD14C,1.000000*%
%ADD15RotRect,2.600000X2.600000X35.000000*%
%ADD16C,2.600000*%
%ADD17C,6.350000*%
%ADD18R,1.600000X1.600000*%
%ADD19C,1.400000*%
%ADD20R,2.500000X2.500000*%
%ADD21C,2.500000*%
%ADD22R,9.842500X2.300000*%
%ADD23R,2.400000X2.400000*%
%ADD24O,2.400000X2.400000*%
%ADD25C,3.200000*%
%ADD26C,4.400000*%
%ADD27R,4.000000X4.000000*%
%ADD28C,4.000000*%
%ADD29R,2.200000X2.200000*%
%ADD30O,2.200000X2.200000*%
%ADD31C,2.000000*%
%ADD32RoundRect,0.381000X-0.808223X0.269408X0.269408X-0.808223X0.808223X-0.269408X-0.269408X0.808223X0*%
%ADD33R,2.300000X9.842500*%
%ADD34C,1.700000*%
%ADD35C,6.500000*%
%ADD36R,3.200000X3.200000*%
%ADD37O,3.200000X3.200000*%
%ADD38O,3.500000X3.500000*%
%ADD39R,2.000000X1.905000*%
%ADD40O,2.000000X1.905000*%
%ADD41R,1.700000X1.700000*%
%ADD42O,1.700000X1.700000*%
%ADD43C,2.400000*%
%ADD44R,1.905000X2.000000*%
%ADD45C,7.000000*%
%ADD46O,1.905000X2.000000*%
G04 APERTURE END LIST*
D10*
X113150877Y-309320000D02*
G75*
G02*
X101649123Y-309320000I-5750877J0D01*
G01*
X101649123Y-309320000D02*
G75*
G02*
X113150877Y-309320000I5750877J0D01*
G01*
D11*
G04 #@! TO.C,R14*
X408949200Y-231248600D03*
D12*
X408949200Y-243694600D03*
G04 #@! TD*
D13*
G04 #@! TO.C,Y1*
X137700000Y-289295000D03*
X142580000Y-289295000D03*
G04 #@! TD*
D11*
G04 #@! TO.C,FB21*
X474250000Y-280595000D03*
D12*
X474250000Y-267895000D03*
G04 #@! TD*
D14*
G04 #@! TO.C,TP2*
X165450000Y-258770000D03*
G04 #@! TD*
D11*
G04 #@! TO.C,R12*
X359400000Y-229377000D03*
D12*
X359400000Y-241823000D03*
G04 #@! TD*
D11*
G04 #@! TO.C,FB18*
X394175000Y-207340000D03*
D12*
X394175000Y-220040000D03*
G04 #@! TD*
D11*
G04 #@! TO.C,C60*
X431200000Y-272679000D03*
D12*
X431200000Y-284871000D03*
G04 #@! TD*
D11*
G04 #@! TO.C,FB25*
X135380000Y-219170000D03*
D12*
X148080000Y-219170000D03*
G04 #@! TD*
D11*
G04 #@! TO.C,R42*
X356450000Y-272502000D03*
D12*
X356450000Y-284948000D03*
G04 #@! TD*
D11*
G04 #@! TO.C,C57*
X255325000Y-272395000D03*
D12*
X255325000Y-284587000D03*
G04 #@! TD*
D15*
G04 #@! TO.C,VR4*
X416149535Y-77588059D03*
D16*
X422412990Y-86533199D03*
D17*
X408380804Y-89681004D03*
X433119196Y-72358996D03*
G04 #@! TD*
D11*
G04 #@! TO.C,C86*
X459925000Y-184528000D03*
D12*
X459925000Y-196720000D03*
G04 #@! TD*
D11*
G04 #@! TO.C,C48*
X397657600Y-230904000D03*
D12*
X397657600Y-243096000D03*
G04 #@! TD*
D11*
G04 #@! TO.C,C92*
X148867000Y-284520000D03*
D12*
X136675000Y-284520000D03*
G04 #@! TD*
D11*
G04 #@! TO.C,R16*
X415350000Y-231274000D03*
D12*
X415350000Y-243720000D03*
G04 #@! TD*
D18*
G04 #@! TO.C,UE1*
X92500000Y-272680000D03*
D12*
X92500000Y-275220000D03*
X92500000Y-277760000D03*
X92500000Y-280300000D03*
X92500000Y-282840000D03*
X92500000Y-285380000D03*
X92500000Y-287920000D03*
X100120000Y-287920000D03*
X100120000Y-285380000D03*
X100120000Y-282840000D03*
X100120000Y-280300000D03*
X100120000Y-277760000D03*
X100120000Y-275220000D03*
X100120000Y-272680000D03*
G04 #@! TD*
D11*
G04 #@! TO.C,R22*
X429100000Y-251077000D03*
D12*
X429100000Y-263523000D03*
G04 #@! TD*
D19*
G04 #@! TO.C,J_3*
X110100000Y-267016000D03*
X110100000Y-254570000D03*
G04 #@! TD*
D20*
G04 #@! TO.C,CR2*
X166200000Y-87970000D03*
D21*
X161200000Y-87970000D03*
X156200000Y-87970000D03*
X151200000Y-87970000D03*
G04 #@! TD*
D11*
G04 #@! TO.C,C72*
X434250000Y-113470000D03*
D12*
X434250000Y-125662000D03*
G04 #@! TD*
D11*
G04 #@! TO.C,C89*
X133066000Y-261320000D03*
D12*
X120874000Y-261320000D03*
G04 #@! TD*
D18*
G04 #@! TO.C,UA7*
X205050000Y-109320000D03*
D12*
X205050000Y-111860000D03*
X205050000Y-114400000D03*
X205050000Y-116940000D03*
X205050000Y-119480000D03*
X205050000Y-122020000D03*
X205050000Y-124560000D03*
X205050000Y-127100000D03*
X212670000Y-127100000D03*
X212670000Y-124560000D03*
X212670000Y-122020000D03*
X212670000Y-119480000D03*
X212670000Y-116940000D03*
X212670000Y-114400000D03*
X212670000Y-111860000D03*
X212670000Y-109320000D03*
G04 #@! TD*
D11*
G04 #@! TO.C,R5*
X127900000Y-190995000D03*
D12*
X127900000Y-203441000D03*
G04 #@! TD*
D18*
G04 #@! TO.C,UB14*
X364400000Y-151095000D03*
D12*
X364400000Y-153635000D03*
X364400000Y-156175000D03*
X364400000Y-158715000D03*
X364400000Y-161255000D03*
X364400000Y-163795000D03*
X364400000Y-166335000D03*
X364400000Y-168875000D03*
X364400000Y-171415000D03*
X364400000Y-173955000D03*
X364400000Y-176495000D03*
X364400000Y-179035000D03*
X364400000Y-181575000D03*
X364400000Y-184115000D03*
X364400000Y-186655000D03*
X364400000Y-189195000D03*
X364400000Y-191735000D03*
X364400000Y-194275000D03*
X364400000Y-196815000D03*
X364400000Y-199355000D03*
X379640000Y-199355000D03*
X379640000Y-196815000D03*
X379640000Y-194275000D03*
X379640000Y-191735000D03*
X379640000Y-189195000D03*
X379640000Y-186655000D03*
X379640000Y-184115000D03*
X379640000Y-181575000D03*
X379640000Y-179035000D03*
X379640000Y-176495000D03*
X379640000Y-173955000D03*
X379640000Y-171415000D03*
X379640000Y-168875000D03*
X379640000Y-166335000D03*
X379640000Y-163795000D03*
X379640000Y-161255000D03*
X379640000Y-158715000D03*
X379640000Y-156175000D03*
X379640000Y-153635000D03*
X379640000Y-151095000D03*
G04 #@! TD*
D22*
G04 #@! TO.C,J1*
X484277950Y-161996400D03*
X484277950Y-158036400D03*
X484277950Y-154076400D03*
X484277950Y-150116400D03*
X484277950Y-146156400D03*
X484277950Y-142196400D03*
X484277950Y-138236400D03*
X484277950Y-134276400D03*
X484373200Y-130278400D03*
X484373200Y-126356400D03*
X484373200Y-122396400D03*
X484373200Y-118436400D03*
G04 #@! TD*
D11*
G04 #@! TO.C,R25*
X439550000Y-249777000D03*
D12*
X439550000Y-262223000D03*
G04 #@! TD*
D11*
G04 #@! TO.C,C70*
X398250000Y-113534000D03*
D12*
X398250000Y-125726000D03*
G04 #@! TD*
D22*
G04 #@! TO.C,J2*
X484043000Y-247334200D03*
X484043000Y-243374200D03*
X484043000Y-239414200D03*
X484043000Y-235454200D03*
X484043000Y-231494200D03*
X484043000Y-227534200D03*
X484043000Y-223574200D03*
X484043000Y-219614200D03*
X484043000Y-215654200D03*
X484043000Y-211694200D03*
X484043000Y-207734200D03*
X484043000Y-203774200D03*
G04 #@! TD*
D11*
G04 #@! TO.C,FB2*
X450650000Y-124429000D03*
D12*
X450650000Y-136621000D03*
G04 #@! TD*
D11*
G04 #@! TO.C,C88*
X442450000Y-225462000D03*
D12*
X442450000Y-213270000D03*
G04 #@! TD*
D11*
G04 #@! TO.C,C62*
X166150000Y-113124000D03*
D12*
X166150000Y-125316000D03*
G04 #@! TD*
D11*
G04 #@! TO.C,R7*
X162900000Y-244120000D03*
D12*
X162900000Y-231674000D03*
G04 #@! TD*
D23*
G04 #@! TO.C,C23*
X342773000Y-127601000D03*
D24*
X342773000Y-109601000D03*
G04 #@! TD*
D18*
G04 #@! TO.C,UC10*
X259100000Y-190745000D03*
D12*
X259100000Y-193285000D03*
X259100000Y-195825000D03*
X259100000Y-198365000D03*
X259100000Y-200905000D03*
X259100000Y-203445000D03*
X259100000Y-205985000D03*
X259100000Y-208525000D03*
X266720000Y-208525000D03*
X266720000Y-205985000D03*
X266720000Y-203445000D03*
X266720000Y-200905000D03*
X266720000Y-198365000D03*
X266720000Y-195825000D03*
X266720000Y-193285000D03*
X266720000Y-190745000D03*
G04 #@! TD*
D11*
G04 #@! TO.C,FB8*
X462355000Y-154795000D03*
D12*
X475055000Y-154795000D03*
G04 #@! TD*
D25*
G04 #@! TO.C,REF3*
X465010000Y-312925200D03*
G04 #@! TD*
D18*
G04 #@! TO.C,UC4*
X151825000Y-190745000D03*
D12*
X151825000Y-193285000D03*
X151825000Y-195825000D03*
X151825000Y-198365000D03*
X151825000Y-200905000D03*
X151825000Y-203445000D03*
X151825000Y-205985000D03*
X151825000Y-208525000D03*
X151825000Y-211065000D03*
X159445000Y-211065000D03*
X159445000Y-208525000D03*
X159445000Y-205985000D03*
X159445000Y-203445000D03*
X159445000Y-200905000D03*
X159445000Y-198365000D03*
X159445000Y-195825000D03*
X159445000Y-193285000D03*
X159445000Y-190745000D03*
G04 #@! TD*
D18*
G04 #@! TO.C,UA11*
X276450000Y-109370000D03*
D12*
X276450000Y-111910000D03*
X276450000Y-114450000D03*
X276450000Y-116990000D03*
X276450000Y-119530000D03*
X276450000Y-122070000D03*
X276450000Y-124610000D03*
X276450000Y-127150000D03*
X284070000Y-127150000D03*
X284070000Y-124610000D03*
X284070000Y-122070000D03*
X284070000Y-119530000D03*
X284070000Y-116990000D03*
X284070000Y-114450000D03*
X284070000Y-111910000D03*
X284070000Y-109370000D03*
G04 #@! TD*
D19*
G04 #@! TO.C,J_7*
X124150000Y-170524000D03*
X124150000Y-182970000D03*
G04 #@! TD*
D11*
G04 #@! TO.C,J14*
X220875000Y-223889000D03*
X223415000Y-223889000D03*
X225955000Y-223889000D03*
X228495000Y-223889000D03*
X228495000Y-214745000D03*
X225955000Y-214745000D03*
X223415000Y-214745000D03*
X220875000Y-214745000D03*
G04 #@! TD*
D18*
G04 #@! TO.C,UE12*
X315175000Y-272645000D03*
D12*
X315175000Y-275185000D03*
X315175000Y-277725000D03*
X315175000Y-280265000D03*
X315175000Y-282805000D03*
X315175000Y-285345000D03*
X315175000Y-287885000D03*
X315175000Y-290425000D03*
X315175000Y-292965000D03*
X315175000Y-295505000D03*
X315175000Y-298045000D03*
X315175000Y-300585000D03*
X330415000Y-300585000D03*
X330415000Y-298045000D03*
X330415000Y-295505000D03*
X330415000Y-292965000D03*
X330415000Y-290425000D03*
X330415000Y-287885000D03*
X330415000Y-285345000D03*
X330415000Y-282805000D03*
X330415000Y-280265000D03*
X330415000Y-277725000D03*
X330415000Y-275185000D03*
X330415000Y-272645000D03*
G04 #@! TD*
D18*
G04 #@! TO.C,UA13*
X312200000Y-109520000D03*
D12*
X312200000Y-112060000D03*
X312200000Y-114600000D03*
X312200000Y-117140000D03*
X312200000Y-119680000D03*
X312200000Y-122220000D03*
X312200000Y-124760000D03*
X312200000Y-127300000D03*
X319820000Y-127300000D03*
X319820000Y-124760000D03*
X319820000Y-122220000D03*
X319820000Y-119680000D03*
X319820000Y-117140000D03*
X319820000Y-114600000D03*
X319820000Y-112060000D03*
X319820000Y-109520000D03*
G04 #@! TD*
D26*
G04 #@! TO.C,H1*
X150900000Y-314420000D03*
G04 #@! TD*
D11*
G04 #@! TO.C,C83*
X460000000Y-177487000D03*
D12*
X460000000Y-165295000D03*
G04 #@! TD*
D22*
G04 #@! TO.C,J3*
X483825000Y-309160000D03*
X483825000Y-305200000D03*
X483825000Y-301240000D03*
X483825000Y-297280000D03*
X483825000Y-293320000D03*
X483825000Y-289360000D03*
G04 #@! TD*
D11*
G04 #@! TO.C,C80*
X466042000Y-139195000D03*
D12*
X453850000Y-139195000D03*
G04 #@! TD*
D18*
G04 #@! TO.C,UB9*
X240875000Y-150795000D03*
D12*
X240875000Y-153335000D03*
X240875000Y-155875000D03*
X240875000Y-158415000D03*
X240875000Y-160955000D03*
X240875000Y-163495000D03*
X240875000Y-166035000D03*
X240875000Y-168575000D03*
X240875000Y-171115000D03*
X240875000Y-173655000D03*
X248495000Y-173655000D03*
X248495000Y-171115000D03*
X248495000Y-168575000D03*
X248495000Y-166035000D03*
X248495000Y-163495000D03*
X248495000Y-160955000D03*
X248495000Y-158415000D03*
X248495000Y-155875000D03*
X248495000Y-153335000D03*
X248495000Y-150795000D03*
G04 #@! TD*
D18*
G04 #@! TO.C,UA6*
X187550000Y-109370000D03*
D12*
X187550000Y-111910000D03*
X187550000Y-114450000D03*
X187550000Y-116990000D03*
X187550000Y-119530000D03*
X187550000Y-122070000D03*
X187550000Y-124610000D03*
X187550000Y-127150000D03*
X195170000Y-127150000D03*
X195170000Y-124610000D03*
X195170000Y-122070000D03*
X195170000Y-119530000D03*
X195170000Y-116990000D03*
X195170000Y-114450000D03*
X195170000Y-111910000D03*
X195170000Y-109370000D03*
G04 #@! TD*
D11*
G04 #@! TO.C,C31*
X128325000Y-150874000D03*
D12*
X128325000Y-163066000D03*
G04 #@! TD*
D27*
G04 #@! TO.C,C5*
X207150000Y-87027832D03*
D28*
X207150000Y-77027832D03*
G04 #@! TD*
D11*
G04 #@! TO.C,R1*
X384000000Y-163591000D03*
D12*
X384000000Y-151145000D03*
G04 #@! TD*
D11*
G04 #@! TO.C,C27*
X412542000Y-126920000D03*
D12*
X412542000Y-114728000D03*
G04 #@! TD*
D18*
G04 #@! TO.C,UB16*
X414775000Y-151130000D03*
D12*
X414775000Y-153670000D03*
X414775000Y-156210000D03*
X414775000Y-158750000D03*
X414775000Y-161290000D03*
X414775000Y-163830000D03*
X414775000Y-166370000D03*
X414775000Y-168910000D03*
X414775000Y-171450000D03*
X414775000Y-173990000D03*
X414775000Y-176530000D03*
X414775000Y-179070000D03*
X414775000Y-181610000D03*
X414775000Y-184150000D03*
X414775000Y-186690000D03*
X414775000Y-189230000D03*
X414775000Y-191770000D03*
X414775000Y-194310000D03*
X414775000Y-196850000D03*
X414775000Y-199390000D03*
X430015000Y-199390000D03*
X430015000Y-196850000D03*
X430015000Y-194310000D03*
X430015000Y-191770000D03*
X430015000Y-189230000D03*
X430015000Y-186690000D03*
X430015000Y-184150000D03*
X430015000Y-181610000D03*
X430015000Y-179070000D03*
X430015000Y-176530000D03*
X430015000Y-173990000D03*
X430015000Y-171450000D03*
X430015000Y-168910000D03*
X430015000Y-166370000D03*
X430015000Y-163830000D03*
X430015000Y-161290000D03*
X430015000Y-158750000D03*
X430015000Y-156210000D03*
X430015000Y-153670000D03*
X430015000Y-151130000D03*
G04 #@! TD*
D18*
G04 #@! TO.C,UB2*
X116475000Y-150820000D03*
D12*
X116475000Y-153360000D03*
X116475000Y-155900000D03*
X116475000Y-158440000D03*
X116475000Y-160980000D03*
X116475000Y-163520000D03*
X116475000Y-166060000D03*
X124095000Y-166060000D03*
X124095000Y-163520000D03*
X124095000Y-160980000D03*
X124095000Y-158440000D03*
X124095000Y-155900000D03*
X124095000Y-153360000D03*
X124095000Y-150820000D03*
G04 #@! TD*
D18*
G04 #@! TO.C,UB6*
X187525000Y-150745000D03*
D12*
X187525000Y-153285000D03*
X187525000Y-155825000D03*
X187525000Y-158365000D03*
X187525000Y-160905000D03*
X187525000Y-163445000D03*
X187525000Y-165985000D03*
X187525000Y-168525000D03*
X187525000Y-171065000D03*
X187525000Y-173605000D03*
X195145000Y-173605000D03*
X195145000Y-171065000D03*
X195145000Y-168525000D03*
X195145000Y-165985000D03*
X195145000Y-163445000D03*
X195145000Y-160905000D03*
X195145000Y-158365000D03*
X195145000Y-155825000D03*
X195145000Y-153285000D03*
X195145000Y-150745000D03*
G04 #@! TD*
D11*
G04 #@! TO.C,JP3*
X117202000Y-211020000D03*
X120250000Y-211020000D03*
X123298000Y-211020000D03*
G04 #@! TD*
G04 #@! TO.C,C28*
X430550000Y-125912000D03*
D12*
X430550000Y-113720000D03*
G04 #@! TD*
D11*
G04 #@! TO.C,FB9*
X462355000Y-150895000D03*
D12*
X475055000Y-150895000D03*
G04 #@! TD*
D18*
G04 #@! TO.C,UE3*
X123125000Y-272820000D03*
D12*
X123125000Y-275360000D03*
X123125000Y-277900000D03*
X123125000Y-280440000D03*
X123125000Y-282980000D03*
X123125000Y-285520000D03*
X123125000Y-288060000D03*
X130745000Y-288060000D03*
X130745000Y-285520000D03*
X130745000Y-282980000D03*
X130745000Y-280440000D03*
X130745000Y-277900000D03*
X130745000Y-275360000D03*
X130745000Y-272820000D03*
G04 #@! TD*
D11*
G04 #@! TO.C,C68*
X326620000Y-113410000D03*
D12*
X326620000Y-125602000D03*
G04 #@! TD*
D11*
G04 #@! TO.C,R46*
X412400000Y-285243000D03*
D12*
X412400000Y-272797000D03*
G04 #@! TD*
D18*
G04 #@! TO.C,UC11*
X294500000Y-176215000D03*
D12*
X294500000Y-178755000D03*
X294500000Y-181295000D03*
X294500000Y-183835000D03*
X294500000Y-186375000D03*
X294500000Y-188915000D03*
X294500000Y-191455000D03*
X294500000Y-193995000D03*
X302120000Y-193995000D03*
X302120000Y-191455000D03*
X302120000Y-188915000D03*
X302120000Y-186375000D03*
X302120000Y-183835000D03*
X302120000Y-181295000D03*
X302120000Y-178755000D03*
X302120000Y-176215000D03*
G04 #@! TD*
D29*
G04 #@! TO.C,CR5*
X240758000Y-101420000D03*
D30*
X252950000Y-101420000D03*
G04 #@! TD*
D11*
G04 #@! TO.C,C41*
X217225000Y-191304000D03*
D12*
X217225000Y-203496000D03*
G04 #@! TD*
D18*
G04 #@! TO.C,UE6*
X204975000Y-272670000D03*
D12*
X204975000Y-275210000D03*
X204975000Y-277750000D03*
X204975000Y-280290000D03*
X204975000Y-282830000D03*
X204975000Y-285370000D03*
X204975000Y-287910000D03*
X212595000Y-287910000D03*
X212595000Y-285370000D03*
X212595000Y-282830000D03*
X212595000Y-280290000D03*
X212595000Y-277750000D03*
X212595000Y-275210000D03*
X212595000Y-272670000D03*
G04 #@! TD*
D11*
G04 #@! TO.C,C93*
X158325000Y-295626000D03*
D12*
X158325000Y-307818000D03*
G04 #@! TD*
D31*
G04 #@! TO.C,MT1*
X128100000Y-302870000D03*
D32*
X116698000Y-300710000D03*
G04 #@! TD*
D11*
G04 #@! TO.C,C67*
X308940000Y-113888000D03*
D12*
X308940000Y-126080000D03*
G04 #@! TD*
D25*
G04 #@! TO.C,REF3*
X287400000Y-312920000D03*
G04 #@! TD*
D33*
G04 #@! TO.C,J6*
X405610000Y-320370000D03*
X409570000Y-320370000D03*
X413530000Y-320370000D03*
X417490000Y-320370000D03*
X421450000Y-320370000D03*
X425410000Y-320370000D03*
G04 #@! TD*
D11*
G04 #@! TO.C,C90*
X146650000Y-231654000D03*
D12*
X146650000Y-243846000D03*
G04 #@! TD*
D11*
G04 #@! TO.C,R37*
X288250000Y-284841000D03*
D12*
X288250000Y-272395000D03*
G04 #@! TD*
D11*
G04 #@! TO.C,C32*
X164300000Y-150795000D03*
D12*
X164300000Y-162987000D03*
G04 #@! TD*
D11*
G04 #@! TO.C,R39*
X306125000Y-272220000D03*
D12*
X306125000Y-284666000D03*
G04 #@! TD*
D25*
G04 #@! TO.C,REF1*
X131400000Y-76920000D03*
G04 #@! TD*
D11*
G04 #@! TO.C,R4*
X112575000Y-191002000D03*
D12*
X112575000Y-203448000D03*
G04 #@! TD*
D18*
G04 #@! TO.C,UA17*
X383700000Y-109670000D03*
D12*
X383700000Y-112210000D03*
X383700000Y-114750000D03*
X383700000Y-117290000D03*
X383700000Y-119830000D03*
X383700000Y-122370000D03*
X383700000Y-124910000D03*
X383700000Y-127450000D03*
X391320000Y-127450000D03*
X391320000Y-124910000D03*
X391320000Y-122370000D03*
X391320000Y-119830000D03*
X391320000Y-117290000D03*
X391320000Y-114750000D03*
X391320000Y-112210000D03*
X391320000Y-109670000D03*
G04 #@! TD*
D18*
G04 #@! TO.C,UB4*
X151725000Y-150820000D03*
D12*
X151725000Y-153360000D03*
X151725000Y-155900000D03*
X151725000Y-158440000D03*
X151725000Y-160980000D03*
X151725000Y-163520000D03*
X151725000Y-166060000D03*
X151725000Y-168600000D03*
X151725000Y-171140000D03*
X151725000Y-173680000D03*
X159345000Y-173680000D03*
X159345000Y-171140000D03*
X159345000Y-168600000D03*
X159345000Y-166060000D03*
X159345000Y-163520000D03*
X159345000Y-160980000D03*
X159345000Y-158440000D03*
X159345000Y-155900000D03*
X159345000Y-153360000D03*
X159345000Y-150820000D03*
G04 #@! TD*
D18*
G04 #@! TO.C,UD4*
X151400000Y-231630000D03*
D12*
X151400000Y-234170000D03*
X151400000Y-236710000D03*
X151400000Y-239250000D03*
X151400000Y-241790000D03*
X151400000Y-244330000D03*
X151400000Y-246870000D03*
X159020000Y-246870000D03*
X159020000Y-244330000D03*
X159020000Y-241790000D03*
X159020000Y-239250000D03*
X159020000Y-236710000D03*
X159020000Y-234170000D03*
X159020000Y-231630000D03*
G04 #@! TD*
D11*
G04 #@! TO.C,C25*
X376800000Y-126812000D03*
D12*
X376800000Y-114620000D03*
G04 #@! TD*
D11*
G04 #@! TO.C,R6*
X111400000Y-243616000D03*
D12*
X111400000Y-231170000D03*
G04 #@! TD*
D19*
G04 #@! TO.C,J_8*
X136450000Y-185820000D03*
X124004000Y-185820000D03*
G04 #@! TD*
D18*
G04 #@! TO.C,UE15*
X420450000Y-272720000D03*
D12*
X420450000Y-275260000D03*
X420450000Y-277800000D03*
X420450000Y-280340000D03*
X420450000Y-282880000D03*
X420450000Y-285420000D03*
X420450000Y-287960000D03*
X428070000Y-287960000D03*
X428070000Y-285420000D03*
X428070000Y-282880000D03*
X428070000Y-280340000D03*
X428070000Y-277800000D03*
X428070000Y-275260000D03*
X428070000Y-272720000D03*
G04 #@! TD*
D11*
G04 #@! TO.C,R11*
X186850000Y-243863000D03*
D12*
X186850000Y-231417000D03*
G04 #@! TD*
D11*
G04 #@! TO.C,C61*
X456700000Y-272604000D03*
D12*
X456700000Y-284796000D03*
G04 #@! TD*
D34*
G04 #@! TO.C,J5*
X281900000Y-171370000D03*
X281900000Y-173910000D03*
X281900000Y-176450000D03*
X281900000Y-178990000D03*
X281900000Y-181530000D03*
X281900000Y-184070000D03*
X281900000Y-186610000D03*
X281900000Y-189150000D03*
X281900000Y-191690000D03*
X281900000Y-194230000D03*
X281900000Y-196770000D03*
X281900000Y-199310000D03*
X281900000Y-151050000D03*
X281900000Y-153590000D03*
X281900000Y-156130000D03*
X281900000Y-158670000D03*
X281900000Y-161210000D03*
X281900000Y-163750000D03*
X281900000Y-166290000D03*
X281900000Y-168830000D03*
G04 #@! TD*
D11*
G04 #@! TO.C,C66*
X291100000Y-125412000D03*
D12*
X291100000Y-113220000D03*
G04 #@! TD*
D18*
G04 #@! TO.C,UE9*
X258975000Y-272720000D03*
D12*
X258975000Y-275260000D03*
X258975000Y-277800000D03*
X258975000Y-280340000D03*
X258975000Y-282880000D03*
X258975000Y-285420000D03*
X258975000Y-287960000D03*
X258975000Y-290500000D03*
X258975000Y-293040000D03*
X258975000Y-295580000D03*
X266595000Y-295580000D03*
X266595000Y-293040000D03*
X266595000Y-290500000D03*
X266595000Y-287960000D03*
X266595000Y-285420000D03*
X266595000Y-282880000D03*
X266595000Y-280340000D03*
X266595000Y-277800000D03*
X266595000Y-275260000D03*
X266595000Y-272720000D03*
G04 #@! TD*
D35*
G04 #@! TO.C,MH1*
X465500000Y-78320000D03*
G04 #@! TD*
D11*
G04 #@! TO.C,C98*
X468966000Y-106170000D03*
D12*
X456774000Y-106170000D03*
G04 #@! TD*
D11*
G04 #@! TO.C,C13*
X162650000Y-126816000D03*
D12*
X162650000Y-114624000D03*
G04 #@! TD*
D11*
G04 #@! TO.C,C14*
X180450000Y-126566000D03*
D12*
X180450000Y-114374000D03*
G04 #@! TD*
D18*
G04 #@! TO.C,UE4*
X173175000Y-272945000D03*
D12*
X173175000Y-275485000D03*
X173175000Y-278025000D03*
X173175000Y-280565000D03*
X173175000Y-283105000D03*
X173175000Y-285645000D03*
X173175000Y-288185000D03*
X180795000Y-288185000D03*
X180795000Y-285645000D03*
X180795000Y-283105000D03*
X180795000Y-280565000D03*
X180795000Y-278025000D03*
X180795000Y-275485000D03*
X180795000Y-272945000D03*
G04 #@! TD*
D11*
G04 #@! TO.C,FB16*
X475350000Y-190970000D03*
D12*
X462650000Y-190970000D03*
G04 #@! TD*
D11*
G04 #@! TO.C,R36*
X272600000Y-285163000D03*
D12*
X272600000Y-272717000D03*
G04 #@! TD*
D31*
G04 #@! TO.C,J11*
X448600000Y-101370000D03*
X456220000Y-101370000D03*
X458760000Y-101370000D03*
X461300000Y-101370000D03*
X463840000Y-101370000D03*
G04 #@! TD*
D18*
G04 #@! TO.C,UD3*
X133750000Y-231570000D03*
D12*
X133750000Y-234110000D03*
X133750000Y-236650000D03*
X133750000Y-239190000D03*
X133750000Y-241730000D03*
X133750000Y-244270000D03*
X133750000Y-246810000D03*
X141370000Y-246810000D03*
X141370000Y-244270000D03*
X141370000Y-241730000D03*
X141370000Y-239190000D03*
X141370000Y-236650000D03*
X141370000Y-234110000D03*
X141370000Y-231570000D03*
G04 #@! TD*
D23*
G04 #@! TO.C,C1*
X122300000Y-100320000D03*
D24*
X122300000Y-82320000D03*
G04 #@! TD*
D11*
G04 #@! TO.C,FB4*
X455700000Y-116020000D03*
D12*
X468400000Y-116020000D03*
G04 #@! TD*
D11*
G04 #@! TO.C,R38*
X291000000Y-284863000D03*
D12*
X291000000Y-272417000D03*
G04 #@! TD*
D11*
G04 #@! TO.C,C47*
X333950000Y-229024000D03*
D12*
X333950000Y-241216000D03*
G04 #@! TD*
D11*
G04 #@! TO.C,C56*
X198625000Y-272870000D03*
D12*
X198625000Y-285062000D03*
G04 #@! TD*
D18*
G04 #@! TO.C,UD1*
X98400000Y-231170000D03*
D12*
X98400000Y-233710000D03*
X98400000Y-236250000D03*
X98400000Y-238790000D03*
X98400000Y-241330000D03*
X98400000Y-243870000D03*
X98400000Y-246410000D03*
X106020000Y-246410000D03*
X106020000Y-243870000D03*
X106020000Y-241330000D03*
X106020000Y-238790000D03*
X106020000Y-236250000D03*
X106020000Y-233710000D03*
X106020000Y-231170000D03*
G04 #@! TD*
D11*
G04 #@! TO.C,R26*
X450950000Y-261966000D03*
D12*
X450950000Y-249520000D03*
G04 #@! TD*
D11*
G04 #@! TO.C,J_2*
X103650000Y-223920000D03*
X111270000Y-223920000D03*
G04 #@! TD*
G04 #@! TO.C,C35*
X271650000Y-151045000D03*
D12*
X271650000Y-163237000D03*
G04 #@! TD*
D11*
G04 #@! TO.C,C95*
X461346000Y-231503000D03*
D12*
X461346000Y-243695000D03*
G04 #@! TD*
D11*
G04 #@! TO.C,C3*
X146600000Y-86304000D03*
D12*
X146600000Y-98496000D03*
G04 #@! TD*
D11*
G04 #@! TO.C,R21*
X454920000Y-244171000D03*
D12*
X454920000Y-231725000D03*
G04 #@! TD*
D29*
G04 #@! TO.C,CR1*
X128750000Y-97400000D03*
D30*
X128750000Y-87240000D03*
G04 #@! TD*
D11*
G04 #@! TO.C,C74*
X447825000Y-225462000D03*
D12*
X447825000Y-213270000D03*
G04 #@! TD*
D18*
G04 #@! TO.C,UA2*
X115950000Y-109370000D03*
D12*
X115950000Y-111910000D03*
X115950000Y-114450000D03*
X115950000Y-116990000D03*
X115950000Y-119530000D03*
X115950000Y-122070000D03*
X115950000Y-124610000D03*
X115950000Y-127150000D03*
X123570000Y-127150000D03*
X123570000Y-124610000D03*
X123570000Y-122070000D03*
X123570000Y-119530000D03*
X123570000Y-116990000D03*
X123570000Y-114450000D03*
X123570000Y-111910000D03*
X123570000Y-109370000D03*
G04 #@! TD*
D11*
G04 #@! TO.C,C82*
X465942000Y-131570000D03*
D12*
X453750000Y-131570000D03*
G04 #@! TD*
D11*
G04 #@! TO.C,C22*
X322850000Y-126762000D03*
D12*
X322850000Y-114570000D03*
G04 #@! TD*
D19*
G04 #@! TO.C,J_4*
X115200000Y-267066000D03*
X115200000Y-254620000D03*
G04 #@! TD*
D11*
G04 #@! TO.C,C49*
X457587000Y-231521800D03*
D12*
X457587000Y-243713800D03*
G04 #@! TD*
D11*
G04 #@! TO.C,C69*
X380320000Y-125712000D03*
D12*
X380320000Y-113520000D03*
G04 #@! TD*
D26*
G04 #@! TO.C,H4*
X169400000Y-296170000D03*
G04 #@! TD*
D31*
G04 #@! TO.C,J7*
X96000000Y-125410000D03*
X96000000Y-122870000D03*
X96000000Y-120330000D03*
X96000000Y-117790000D03*
X96000000Y-115250000D03*
X96000000Y-110170000D03*
G04 #@! TD*
D18*
G04 #@! TO.C,UF1*
X147200000Y-292570000D03*
D12*
X147200000Y-295110000D03*
X147200000Y-297650000D03*
X147200000Y-300190000D03*
X147200000Y-302730000D03*
X147200000Y-305270000D03*
X147200000Y-307810000D03*
X154820000Y-307810000D03*
X154820000Y-305270000D03*
X154820000Y-302730000D03*
X154820000Y-300190000D03*
X154820000Y-297650000D03*
X154820000Y-295110000D03*
X154820000Y-292570000D03*
G04 #@! TD*
D36*
G04 #@! TO.C,CR3*
X163280000Y-69970000D03*
D37*
X178520000Y-69970000D03*
G04 #@! TD*
D18*
G04 #@! TO.C,UE10*
X277100000Y-272670000D03*
D12*
X277100000Y-275210000D03*
X277100000Y-277750000D03*
X277100000Y-280290000D03*
X277100000Y-282830000D03*
X277100000Y-285370000D03*
X277100000Y-287910000D03*
X277100000Y-290450000D03*
X277100000Y-292990000D03*
X277100000Y-295530000D03*
X284720000Y-295530000D03*
X284720000Y-292990000D03*
X284720000Y-290450000D03*
X284720000Y-287910000D03*
X284720000Y-285370000D03*
X284720000Y-282830000D03*
X284720000Y-280290000D03*
X284720000Y-277750000D03*
X284720000Y-275210000D03*
X284720000Y-272670000D03*
G04 #@! TD*
D11*
G04 #@! TO.C,R49*
X471300000Y-84077000D03*
D12*
X471300000Y-96523000D03*
G04 #@! TD*
D11*
G04 #@! TO.C,JP2*
X117202000Y-215670000D03*
X120250000Y-215670000D03*
X123298000Y-215670000D03*
G04 #@! TD*
G04 #@! TO.C,FB20*
X448000000Y-309720000D03*
D12*
X460700000Y-309720000D03*
G04 #@! TD*
D14*
G04 #@! TO.C,TP7*
X312700000Y-277720000D03*
G04 #@! TD*
D18*
G04 #@! TO.C,UD2*
X116150000Y-231170000D03*
D12*
X116150000Y-233710000D03*
X116150000Y-236250000D03*
X116150000Y-238790000D03*
X116150000Y-241330000D03*
X116150000Y-243870000D03*
X116150000Y-246410000D03*
X123770000Y-246410000D03*
X123770000Y-243870000D03*
X123770000Y-241330000D03*
X123770000Y-238790000D03*
X123770000Y-236250000D03*
X123770000Y-233710000D03*
X123770000Y-231170000D03*
G04 #@! TD*
D18*
G04 #@! TO.C,UC6*
X187350000Y-190745000D03*
D12*
X187350000Y-193285000D03*
X187350000Y-195825000D03*
X187350000Y-198365000D03*
X187350000Y-200905000D03*
X187350000Y-203445000D03*
X187350000Y-205985000D03*
X187350000Y-208525000D03*
X187350000Y-211065000D03*
X194970000Y-211065000D03*
X194970000Y-208525000D03*
X194970000Y-205985000D03*
X194970000Y-203445000D03*
X194970000Y-200905000D03*
X194970000Y-198365000D03*
X194970000Y-195825000D03*
X194970000Y-193285000D03*
X194970000Y-190745000D03*
G04 #@! TD*
D38*
G04 #@! TO.C,VR1*
X97920000Y-92870000D03*
D39*
X114580000Y-95410000D03*
D40*
X114580000Y-92870000D03*
X114580000Y-90330000D03*
G04 #@! TD*
D19*
G04 #@! TO.C,J_6*
X127650000Y-170520000D03*
X127650000Y-182966000D03*
G04 #@! TD*
D11*
G04 #@! TO.C,C50*
X434350000Y-249504000D03*
D12*
X434350000Y-261696000D03*
G04 #@! TD*
D18*
G04 #@! TO.C,C2*
X137550000Y-94922651D03*
D11*
X137550000Y-89922651D03*
G04 #@! TD*
G04 #@! TO.C,C76*
X469016000Y-108720000D03*
D12*
X456824000Y-108720000D03*
G04 #@! TD*
D18*
G04 #@! TO.C,UD9*
X265600000Y-231295000D03*
D12*
X265600000Y-233835000D03*
X265600000Y-236375000D03*
X265600000Y-238915000D03*
X265600000Y-241455000D03*
X265600000Y-243995000D03*
X265600000Y-246535000D03*
X265600000Y-249075000D03*
X265600000Y-251615000D03*
X265600000Y-254155000D03*
X265600000Y-256695000D03*
X265600000Y-259235000D03*
X280840000Y-259235000D03*
X280840000Y-256695000D03*
X280840000Y-254155000D03*
X280840000Y-251615000D03*
X280840000Y-249075000D03*
X280840000Y-246535000D03*
X280840000Y-243995000D03*
X280840000Y-241455000D03*
X280840000Y-238915000D03*
X280840000Y-236375000D03*
X280840000Y-233835000D03*
X280840000Y-231295000D03*
G04 #@! TD*
D18*
G04 #@! TO.C,UE2*
X109025000Y-272745000D03*
D12*
X109025000Y-275285000D03*
X109025000Y-277825000D03*
X109025000Y-280365000D03*
X109025000Y-282905000D03*
X109025000Y-285445000D03*
X109025000Y-287985000D03*
X109025000Y-290525000D03*
X116645000Y-290525000D03*
X116645000Y-287985000D03*
X116645000Y-285445000D03*
X116645000Y-282905000D03*
X116645000Y-280365000D03*
X116645000Y-277825000D03*
X116645000Y-275285000D03*
X116645000Y-272745000D03*
G04 #@! TD*
D11*
G04 #@! TO.C,C43*
X91650000Y-231404000D03*
D12*
X91650000Y-243596000D03*
G04 #@! TD*
D11*
G04 #@! TO.C,R33*
X234500000Y-285263000D03*
D12*
X234500000Y-272817000D03*
G04 #@! TD*
D18*
G04 #@! TO.C,UA3*
X130300000Y-109370000D03*
D12*
X130300000Y-111910000D03*
X130300000Y-114450000D03*
X130300000Y-116990000D03*
X130300000Y-119530000D03*
X130300000Y-122070000D03*
X130300000Y-124610000D03*
X130300000Y-127150000D03*
X130300000Y-129690000D03*
X130300000Y-132230000D03*
X130300000Y-134770000D03*
X130300000Y-137310000D03*
X145540000Y-137310000D03*
X145540000Y-134770000D03*
X145540000Y-132230000D03*
X145540000Y-129690000D03*
X145540000Y-127150000D03*
X145540000Y-124610000D03*
X145540000Y-122070000D03*
X145540000Y-119530000D03*
X145540000Y-116990000D03*
X145540000Y-114450000D03*
X145540000Y-111910000D03*
X145540000Y-109370000D03*
G04 #@! TD*
D23*
G04 #@! TO.C,C11*
X422584000Y-101270000D03*
D24*
X442650000Y-101270000D03*
G04 #@! TD*
D11*
G04 #@! TO.C,FB3*
X455700000Y-112470000D03*
D12*
X468400000Y-112470000D03*
G04 #@! TD*
D11*
G04 #@! TO.C,C30*
X92750000Y-150824000D03*
D12*
X92750000Y-163016000D03*
G04 #@! TD*
D11*
G04 #@! TO.C,FB26*
X134130000Y-258520000D03*
D12*
X146830000Y-258520000D03*
G04 #@! TD*
D11*
G04 #@! TO.C,FB28*
X115700000Y-223520000D03*
D12*
X128400000Y-223520000D03*
G04 #@! TD*
D11*
G04 #@! TO.C,C18*
X251850000Y-126612000D03*
D12*
X251850000Y-114420000D03*
G04 #@! TD*
D11*
G04 #@! TO.C,C45*
X210150000Y-229074000D03*
D12*
X210150000Y-241266000D03*
G04 #@! TD*
D11*
G04 #@! TO.C,C52*
X448300000Y-249454000D03*
D12*
X448300000Y-261646000D03*
G04 #@! TD*
D18*
G04 #@! TO.C,UA12*
X294400000Y-109370000D03*
D12*
X294400000Y-111910000D03*
X294400000Y-114450000D03*
X294400000Y-116990000D03*
X294400000Y-119530000D03*
X294400000Y-122070000D03*
X294400000Y-124610000D03*
X294400000Y-127150000D03*
X302020000Y-127150000D03*
X302020000Y-124610000D03*
X302020000Y-122070000D03*
X302020000Y-119530000D03*
X302020000Y-116990000D03*
X302020000Y-114450000D03*
X302020000Y-111910000D03*
X302020000Y-109370000D03*
G04 #@! TD*
D11*
G04 #@! TO.C,C46*
X285150000Y-229154000D03*
D12*
X285150000Y-241346000D03*
G04 #@! TD*
D41*
G04 #@! TO.C,J9*
X379550000Y-301170000D03*
D42*
X382090000Y-301170000D03*
X384630000Y-301170000D03*
X387170000Y-301170000D03*
X389710000Y-301170000D03*
X392250000Y-301170000D03*
X394790000Y-301170000D03*
X397330000Y-301170000D03*
X399870000Y-301170000D03*
X402410000Y-301170000D03*
X404950000Y-301170000D03*
X407490000Y-301170000D03*
X410030000Y-301170000D03*
X412570000Y-301170000D03*
X415110000Y-301170000D03*
X417650000Y-301170000D03*
X420190000Y-301170000D03*
X422730000Y-301170000D03*
X425270000Y-301170000D03*
X427810000Y-301170000D03*
X430350000Y-301170000D03*
X432890000Y-301170000D03*
X435430000Y-301170000D03*
X437970000Y-301170000D03*
X440510000Y-301170000D03*
X379550000Y-303710000D03*
X382090000Y-303710000D03*
X384630000Y-303710000D03*
X387170000Y-303710000D03*
X389710000Y-303710000D03*
X392250000Y-303710000D03*
X394790000Y-303710000D03*
X397330000Y-303710000D03*
X399870000Y-303710000D03*
X402410000Y-303710000D03*
X404950000Y-303710000D03*
X407490000Y-303710000D03*
X410030000Y-303710000D03*
X412570000Y-303710000D03*
X415110000Y-303710000D03*
X417650000Y-303710000D03*
X420190000Y-303710000D03*
X422730000Y-303710000D03*
X425270000Y-303710000D03*
X427810000Y-303710000D03*
X430350000Y-303710000D03*
X432890000Y-303710000D03*
X435430000Y-303710000D03*
X437970000Y-303710000D03*
X440510000Y-303710000D03*
G04 #@! TD*
D23*
G04 #@! TO.C,C24*
X360500000Y-127220000D03*
D24*
X360500000Y-109220000D03*
G04 #@! TD*
D11*
G04 #@! TO.C,R2*
X94550000Y-190777000D03*
D12*
X94550000Y-203223000D03*
G04 #@! TD*
D18*
G04 #@! TO.C,UA19*
X419450000Y-109570000D03*
D12*
X419450000Y-112110000D03*
X419450000Y-114650000D03*
X419450000Y-117190000D03*
X419450000Y-119730000D03*
X419450000Y-122270000D03*
X419450000Y-124810000D03*
X419450000Y-127350000D03*
X427070000Y-127350000D03*
X427070000Y-124810000D03*
X427070000Y-122270000D03*
X427070000Y-119730000D03*
X427070000Y-117190000D03*
X427070000Y-114650000D03*
X427070000Y-112110000D03*
X427070000Y-109570000D03*
G04 #@! TD*
D11*
G04 #@! TO.C,R53*
X138130200Y-295180800D03*
D12*
X138130200Y-307626800D03*
G04 #@! TD*
D18*
G04 #@! TO.C,UB10*
X258725000Y-150920000D03*
D12*
X258725000Y-153460000D03*
X258725000Y-156000000D03*
X258725000Y-158540000D03*
X258725000Y-161080000D03*
X258725000Y-163620000D03*
X258725000Y-166160000D03*
X258725000Y-168700000D03*
X258725000Y-171240000D03*
X258725000Y-173780000D03*
X266345000Y-173780000D03*
X266345000Y-171240000D03*
X266345000Y-168700000D03*
X266345000Y-166160000D03*
X266345000Y-163620000D03*
X266345000Y-161080000D03*
X266345000Y-158540000D03*
X266345000Y-156000000D03*
X266345000Y-153460000D03*
X266345000Y-150920000D03*
G04 #@! TD*
D11*
G04 #@! TO.C,R19*
X436700000Y-243913000D03*
D12*
X436700000Y-231467000D03*
G04 #@! TD*
D11*
G04 #@! TO.C,FB7*
X450450000Y-153336000D03*
D12*
X450450000Y-141144000D03*
G04 #@! TD*
D11*
G04 #@! TO.C,R40*
X335475000Y-272552000D03*
D12*
X335475000Y-284998000D03*
G04 #@! TD*
D18*
G04 #@! TO.C,UD10*
X290475000Y-231445000D03*
D12*
X290475000Y-233985000D03*
X290475000Y-236525000D03*
X290475000Y-239065000D03*
X290475000Y-241605000D03*
X290475000Y-244145000D03*
X290475000Y-246685000D03*
X290475000Y-249225000D03*
X290475000Y-251765000D03*
X290475000Y-254305000D03*
X290475000Y-256845000D03*
X290475000Y-259385000D03*
X305715000Y-259385000D03*
X305715000Y-256845000D03*
X305715000Y-254305000D03*
X305715000Y-251765000D03*
X305715000Y-249225000D03*
X305715000Y-246685000D03*
X305715000Y-244145000D03*
X305715000Y-241605000D03*
X305715000Y-239065000D03*
X305715000Y-236525000D03*
X305715000Y-233985000D03*
X305715000Y-231445000D03*
G04 #@! TD*
D25*
G04 #@! TO.C,REF2*
X130900000Y-312670000D03*
G04 #@! TD*
D18*
G04 #@! TO.C,UD5*
X169400000Y-231630000D03*
D12*
X169400000Y-234170000D03*
X169400000Y-236710000D03*
X169400000Y-239250000D03*
X169400000Y-241790000D03*
X169400000Y-244330000D03*
X169400000Y-246870000D03*
X177020000Y-246870000D03*
X177020000Y-244330000D03*
X177020000Y-241790000D03*
X177020000Y-239250000D03*
X177020000Y-236710000D03*
X177020000Y-234170000D03*
X177020000Y-231630000D03*
G04 #@! TD*
D11*
G04 #@! TO.C,FB23*
X154155000Y-287370000D03*
D12*
X166855000Y-287370000D03*
G04 #@! TD*
D11*
G04 #@! TO.C,C38*
X91550000Y-190654000D03*
D12*
X91550000Y-202846000D03*
G04 #@! TD*
D18*
G04 #@! TO.C,UE8*
X240975000Y-272720000D03*
D12*
X240975000Y-275260000D03*
X240975000Y-277800000D03*
X240975000Y-280340000D03*
X240975000Y-282880000D03*
X240975000Y-285420000D03*
X240975000Y-287960000D03*
X240975000Y-290500000D03*
X240975000Y-293040000D03*
X240975000Y-295580000D03*
X248595000Y-295580000D03*
X248595000Y-293040000D03*
X248595000Y-290500000D03*
X248595000Y-287960000D03*
X248595000Y-285420000D03*
X248595000Y-282880000D03*
X248595000Y-280340000D03*
X248595000Y-277800000D03*
X248595000Y-275260000D03*
X248595000Y-272720000D03*
G04 #@! TD*
D18*
G04 #@! TO.C,UD11*
X314975000Y-231495000D03*
D12*
X314975000Y-234035000D03*
X314975000Y-236575000D03*
X314975000Y-239115000D03*
X314975000Y-241655000D03*
X314975000Y-244195000D03*
X314975000Y-246735000D03*
X314975000Y-249275000D03*
X314975000Y-251815000D03*
X314975000Y-254355000D03*
X314975000Y-256895000D03*
X314975000Y-259435000D03*
X330215000Y-259435000D03*
X330215000Y-256895000D03*
X330215000Y-254355000D03*
X330215000Y-251815000D03*
X330215000Y-249275000D03*
X330215000Y-246735000D03*
X330215000Y-244195000D03*
X330215000Y-241655000D03*
X330215000Y-239115000D03*
X330215000Y-236575000D03*
X330215000Y-234035000D03*
X330215000Y-231495000D03*
G04 #@! TD*
D11*
G04 #@! TO.C,C44*
X127640000Y-231664000D03*
D12*
X127640000Y-243856000D03*
G04 #@! TD*
D18*
G04 #@! TO.C,UE13*
X366314000Y-272462000D03*
D12*
X366314000Y-275002000D03*
X366314000Y-277542000D03*
X366314000Y-280082000D03*
X366314000Y-282622000D03*
X366314000Y-285162000D03*
X366314000Y-287702000D03*
X373934000Y-287702000D03*
X373934000Y-285162000D03*
X373934000Y-282622000D03*
X373934000Y-280082000D03*
X373934000Y-277542000D03*
X373934000Y-275002000D03*
X373934000Y-272462000D03*
G04 #@! TD*
D18*
G04 #@! TO.C,UA10*
X258600000Y-109320000D03*
D12*
X258600000Y-111860000D03*
X258600000Y-114400000D03*
X258600000Y-116940000D03*
X258600000Y-119480000D03*
X258600000Y-122020000D03*
X258600000Y-124560000D03*
X258600000Y-127100000D03*
X266220000Y-127100000D03*
X266220000Y-124560000D03*
X266220000Y-122020000D03*
X266220000Y-119480000D03*
X266220000Y-116940000D03*
X266220000Y-114400000D03*
X266220000Y-111860000D03*
X266220000Y-109320000D03*
G04 #@! TD*
D18*
G04 #@! TO.C,UB17*
X439780000Y-151270000D03*
D12*
X439780000Y-153810000D03*
X439780000Y-156350000D03*
X439780000Y-158890000D03*
X439780000Y-161430000D03*
X439780000Y-163970000D03*
X439780000Y-166510000D03*
X439780000Y-169050000D03*
X447400000Y-169050000D03*
X447400000Y-166510000D03*
X447400000Y-163970000D03*
X447400000Y-161430000D03*
X447400000Y-158890000D03*
X447400000Y-156350000D03*
X447400000Y-153810000D03*
X447400000Y-151270000D03*
G04 #@! TD*
D26*
G04 #@! TO.C,H2*
X150900000Y-277920000D03*
G04 #@! TD*
D23*
G04 #@! TO.C,C17*
X235675000Y-126420000D03*
D24*
X235675000Y-108420000D03*
G04 #@! TD*
D11*
G04 #@! TO.C,FB1*
X451500000Y-225595000D03*
D12*
X451500000Y-212895000D03*
G04 #@! TD*
D11*
G04 #@! TO.C,C55*
X183925000Y-273229000D03*
D12*
X183925000Y-285421000D03*
G04 #@! TD*
D11*
G04 #@! TO.C,C58*
X308725000Y-272004000D03*
D12*
X308725000Y-284196000D03*
G04 #@! TD*
D18*
G04 #@! TO.C,UA4*
X151930000Y-109380000D03*
D12*
X151930000Y-111920000D03*
X151930000Y-114460000D03*
X151930000Y-117000000D03*
X151930000Y-119540000D03*
X151930000Y-122080000D03*
X151930000Y-124620000D03*
X151930000Y-127160000D03*
X159550000Y-127160000D03*
X159550000Y-124620000D03*
X159550000Y-122080000D03*
X159550000Y-119540000D03*
X159550000Y-117000000D03*
X159550000Y-114460000D03*
X159550000Y-111920000D03*
X159550000Y-109380000D03*
G04 #@! TD*
D11*
G04 #@! TO.C,C63*
X183800000Y-113220000D03*
D12*
X183800000Y-125412000D03*
G04 #@! TD*
D11*
G04 #@! TO.C,C36*
X360325000Y-163237000D03*
D12*
X360325000Y-151045000D03*
G04 #@! TD*
D18*
G04 #@! TO.C,UE16*
X440250000Y-272720000D03*
D12*
X440250000Y-275260000D03*
X440250000Y-277800000D03*
X440250000Y-280340000D03*
X440250000Y-282880000D03*
X440250000Y-285420000D03*
X440250000Y-287960000D03*
X447870000Y-287960000D03*
X447870000Y-285420000D03*
X447870000Y-282880000D03*
X447870000Y-280340000D03*
X447870000Y-277800000D03*
X447870000Y-275260000D03*
X447870000Y-272720000D03*
G04 #@! TD*
D19*
G04 #@! TO.C,J12*
X96350000Y-267166000D03*
X96350000Y-254720000D03*
G04 #@! TD*
D11*
G04 #@! TO.C,J_1*
X103590000Y-220170000D03*
X111210000Y-220170000D03*
G04 #@! TD*
G04 #@! TO.C,C34*
X236175000Y-150745000D03*
D12*
X236175000Y-162937000D03*
G04 #@! TD*
D11*
G04 #@! TO.C,JP4*
X351802000Y-301070000D03*
X342150000Y-301070000D03*
G04 #@! TD*
D18*
G04 #@! TO.C,UC5*
X169525000Y-190745000D03*
D12*
X169525000Y-193285000D03*
X169525000Y-195825000D03*
X169525000Y-198365000D03*
X169525000Y-200905000D03*
X169525000Y-203445000D03*
X169525000Y-205985000D03*
X169525000Y-208525000D03*
X169525000Y-211065000D03*
X177145000Y-211065000D03*
X177145000Y-208525000D03*
X177145000Y-205985000D03*
X177145000Y-203445000D03*
X177145000Y-200905000D03*
X177145000Y-198365000D03*
X177145000Y-195825000D03*
X177145000Y-193285000D03*
X177145000Y-190745000D03*
G04 #@! TD*
D23*
G04 #@! TO.C,C10*
X398516000Y-101270000D03*
D24*
X378450000Y-101270000D03*
G04 #@! TD*
D11*
G04 #@! TO.C,R28*
X103525000Y-285341000D03*
D12*
X103525000Y-272895000D03*
G04 #@! TD*
D11*
G04 #@! TO.C,C26*
X394660000Y-126896000D03*
D12*
X394660000Y-114704000D03*
G04 #@! TD*
D11*
G04 #@! TO.C,C77*
X465942000Y-127970000D03*
D12*
X453750000Y-127970000D03*
G04 #@! TD*
D11*
G04 #@! TO.C,C84*
X452675000Y-184354000D03*
D12*
X452675000Y-196546000D03*
G04 #@! TD*
D18*
G04 #@! TO.C,UB7*
X205100000Y-150795000D03*
D12*
X205100000Y-153335000D03*
X205100000Y-155875000D03*
X205100000Y-158415000D03*
X205100000Y-160955000D03*
X205100000Y-163495000D03*
X205100000Y-166035000D03*
X205100000Y-168575000D03*
X205100000Y-171115000D03*
X205100000Y-173655000D03*
X212720000Y-173655000D03*
X212720000Y-171115000D03*
X212720000Y-168575000D03*
X212720000Y-166035000D03*
X212720000Y-163495000D03*
X212720000Y-160955000D03*
X212720000Y-158415000D03*
X212720000Y-155875000D03*
X212720000Y-153335000D03*
X212720000Y-150795000D03*
G04 #@! TD*
D18*
G04 #@! TO.C,C51*
X444150000Y-250420000D03*
D11*
X444150000Y-252920000D03*
G04 #@! TD*
D18*
G04 #@! TO.C,UD6*
X190622200Y-231630000D03*
D12*
X190622200Y-234170000D03*
X190622200Y-236710000D03*
X190622200Y-239250000D03*
X190622200Y-241790000D03*
X190622200Y-244330000D03*
X190622200Y-246870000D03*
X190622200Y-249410000D03*
X190622200Y-251950000D03*
X190622200Y-254490000D03*
X190622200Y-257030000D03*
X190622200Y-259570000D03*
X205862200Y-259570000D03*
X205862200Y-257030000D03*
X205862200Y-254490000D03*
X205862200Y-251950000D03*
X205862200Y-249410000D03*
X205862200Y-246870000D03*
X205862200Y-244330000D03*
X205862200Y-241790000D03*
X205862200Y-239250000D03*
X205862200Y-236710000D03*
X205862200Y-234170000D03*
X205862200Y-231630000D03*
G04 #@! TD*
D18*
G04 #@! TO.C,UB8*
X222800000Y-150620000D03*
D12*
X222800000Y-153160000D03*
X222800000Y-155700000D03*
X222800000Y-158240000D03*
X222800000Y-160780000D03*
X222800000Y-163320000D03*
X222800000Y-165860000D03*
X222800000Y-168400000D03*
X222800000Y-170940000D03*
X222800000Y-173480000D03*
X230420000Y-173480000D03*
X230420000Y-170940000D03*
X230420000Y-168400000D03*
X230420000Y-165860000D03*
X230420000Y-163320000D03*
X230420000Y-160780000D03*
X230420000Y-158240000D03*
X230420000Y-155700000D03*
X230420000Y-153160000D03*
X230420000Y-150620000D03*
G04 #@! TD*
D11*
G04 #@! TO.C,R48*
X451525000Y-285266000D03*
D12*
X451525000Y-272820000D03*
G04 #@! TD*
D18*
G04 #@! TO.C,UA9*
X240800000Y-109280000D03*
D12*
X240800000Y-111820000D03*
X240800000Y-114360000D03*
X240800000Y-116900000D03*
X240800000Y-119440000D03*
X240800000Y-121980000D03*
X240800000Y-124520000D03*
X240800000Y-127060000D03*
X248420000Y-127060000D03*
X248420000Y-124520000D03*
X248420000Y-121980000D03*
X248420000Y-119440000D03*
X248420000Y-116900000D03*
X248420000Y-114360000D03*
X248420000Y-111820000D03*
X248420000Y-109280000D03*
G04 #@! TD*
D18*
G04 #@! TO.C,UA20*
X439650000Y-109520000D03*
D12*
X439650000Y-112060000D03*
X439650000Y-114600000D03*
X439650000Y-117140000D03*
X439650000Y-119680000D03*
X439650000Y-122220000D03*
X439650000Y-124760000D03*
X439650000Y-127300000D03*
X447270000Y-127300000D03*
X447270000Y-124760000D03*
X447270000Y-122220000D03*
X447270000Y-119680000D03*
X447270000Y-117140000D03*
X447270000Y-114600000D03*
X447270000Y-112060000D03*
X447270000Y-109520000D03*
G04 #@! TD*
D11*
G04 #@! TO.C,C20*
X287450000Y-127120000D03*
D12*
X287450000Y-114928000D03*
G04 #@! TD*
D11*
G04 #@! TO.C,C64*
X201600000Y-125412000D03*
D12*
X201600000Y-113220000D03*
G04 #@! TD*
D11*
G04 #@! TO.C,R3*
X109950000Y-190952000D03*
D12*
X109950000Y-203398000D03*
G04 #@! TD*
D18*
G04 #@! TO.C,UC3*
X133580000Y-190745000D03*
D12*
X133580000Y-193285000D03*
X133580000Y-195825000D03*
X133580000Y-198365000D03*
X133580000Y-200905000D03*
X133580000Y-203445000D03*
X133580000Y-205985000D03*
X133580000Y-208525000D03*
X141200000Y-208525000D03*
X141200000Y-205985000D03*
X141200000Y-203445000D03*
X141200000Y-200905000D03*
X141200000Y-198365000D03*
X141200000Y-195825000D03*
X141200000Y-193285000D03*
X141200000Y-190745000D03*
G04 #@! TD*
D11*
G04 #@! TO.C,FB10*
X462280000Y-146945000D03*
D12*
X474980000Y-146945000D03*
G04 #@! TD*
D18*
G04 #@! TO.C,UA15*
X347900000Y-109620000D03*
D12*
X347900000Y-112160000D03*
X347900000Y-114700000D03*
X347900000Y-117240000D03*
X347900000Y-119780000D03*
X347900000Y-122320000D03*
X347900000Y-124860000D03*
X347900000Y-127400000D03*
X355520000Y-127400000D03*
X355520000Y-124860000D03*
X355520000Y-122320000D03*
X355520000Y-119780000D03*
X355520000Y-117240000D03*
X355520000Y-114700000D03*
X355520000Y-112160000D03*
X355520000Y-109620000D03*
G04 #@! TD*
D19*
G04 #@! TO.C,J13*
X98900000Y-267166000D03*
X98900000Y-254720000D03*
G04 #@! TD*
D11*
G04 #@! TO.C,R18*
X434100000Y-243888800D03*
D12*
X434100000Y-231442800D03*
G04 #@! TD*
D11*
G04 #@! TO.C,R43*
X362050000Y-272552000D03*
D12*
X362050000Y-284998000D03*
G04 #@! TD*
D18*
G04 #@! TO.C,UD15*
X419930000Y-231680000D03*
D12*
X419930000Y-234220000D03*
X419930000Y-236760000D03*
X419930000Y-239300000D03*
X419930000Y-241840000D03*
X419930000Y-244380000D03*
X419930000Y-246920000D03*
X427550000Y-246920000D03*
X427550000Y-244380000D03*
X427550000Y-241840000D03*
X427550000Y-239300000D03*
X427550000Y-236760000D03*
X427550000Y-234220000D03*
X427550000Y-231680000D03*
G04 #@! TD*
D18*
G04 #@! TO.C,UC8*
X223530000Y-190745000D03*
D12*
X223530000Y-193285000D03*
X223530000Y-195825000D03*
X223530000Y-198365000D03*
X223530000Y-200905000D03*
X223530000Y-203445000D03*
X223530000Y-205985000D03*
X223530000Y-208525000D03*
X231150000Y-208525000D03*
X231150000Y-205985000D03*
X231150000Y-203445000D03*
X231150000Y-200905000D03*
X231150000Y-198365000D03*
X231150000Y-195825000D03*
X231150000Y-193285000D03*
X231150000Y-190745000D03*
G04 #@! TD*
D18*
G04 #@! TO.C,UE14*
X384400000Y-272645000D03*
D12*
X384400000Y-275185000D03*
X384400000Y-277725000D03*
X384400000Y-280265000D03*
X384400000Y-282805000D03*
X384400000Y-285345000D03*
X384400000Y-287885000D03*
X392020000Y-287885000D03*
X392020000Y-285345000D03*
X392020000Y-282805000D03*
X392020000Y-280265000D03*
X392020000Y-277725000D03*
X392020000Y-275185000D03*
X392020000Y-272645000D03*
G04 #@! TD*
D18*
G04 #@! TO.C,UC7*
X205278000Y-190674000D03*
D12*
X205278000Y-193214000D03*
X205278000Y-195754000D03*
X205278000Y-198294000D03*
X205278000Y-200834000D03*
X205278000Y-203374000D03*
X205278000Y-205914000D03*
X205278000Y-208454000D03*
X205278000Y-210994000D03*
X212898000Y-210994000D03*
X212898000Y-208454000D03*
X212898000Y-205914000D03*
X212898000Y-203374000D03*
X212898000Y-200834000D03*
X212898000Y-198294000D03*
X212898000Y-195754000D03*
X212898000Y-193214000D03*
X212898000Y-190674000D03*
G04 #@! TD*
D11*
G04 #@! TO.C,R32*
X219800000Y-285213000D03*
D12*
X219800000Y-272767000D03*
G04 #@! TD*
D18*
G04 #@! TO.C,UC9*
X241150000Y-190745000D03*
D12*
X241150000Y-193285000D03*
X241150000Y-195825000D03*
X241150000Y-198365000D03*
X241150000Y-200905000D03*
X241150000Y-203445000D03*
X241150000Y-205985000D03*
X241150000Y-208525000D03*
X248770000Y-208525000D03*
X248770000Y-205985000D03*
X248770000Y-203445000D03*
X248770000Y-200905000D03*
X248770000Y-198365000D03*
X248770000Y-195825000D03*
X248770000Y-193285000D03*
X248770000Y-190745000D03*
G04 #@! TD*
D18*
G04 #@! TO.C,UC2*
X116725000Y-190705000D03*
D12*
X116725000Y-193245000D03*
X116725000Y-195785000D03*
X116725000Y-198325000D03*
X116725000Y-200865000D03*
X116725000Y-203405000D03*
X116725000Y-205945000D03*
X124345000Y-205945000D03*
X124345000Y-203405000D03*
X124345000Y-200865000D03*
X124345000Y-198325000D03*
X124345000Y-195785000D03*
X124345000Y-193245000D03*
X124345000Y-190705000D03*
G04 #@! TD*
D18*
G04 #@! TO.C,UB1*
X98550000Y-150755000D03*
D12*
X98550000Y-153295000D03*
X98550000Y-155835000D03*
X98550000Y-158375000D03*
X98550000Y-160915000D03*
X98550000Y-163455000D03*
X98550000Y-165995000D03*
X106170000Y-165995000D03*
X106170000Y-163455000D03*
X106170000Y-160915000D03*
X106170000Y-158375000D03*
X106170000Y-155835000D03*
X106170000Y-153295000D03*
X106170000Y-150755000D03*
G04 #@! TD*
D11*
G04 #@! TO.C,R47*
X436350000Y-285391000D03*
D12*
X436350000Y-272945000D03*
G04 #@! TD*
D18*
G04 #@! TO.C,UC1*
X98525000Y-190745000D03*
D12*
X98525000Y-193285000D03*
X98525000Y-195825000D03*
X98525000Y-198365000D03*
X98525000Y-200905000D03*
X98525000Y-203445000D03*
X98525000Y-205985000D03*
X106145000Y-205985000D03*
X106145000Y-203445000D03*
X106145000Y-200905000D03*
X106145000Y-198365000D03*
X106145000Y-195825000D03*
X106145000Y-193285000D03*
X106145000Y-190745000D03*
G04 #@! TD*
D11*
G04 #@! TO.C,C15*
X198400000Y-126562000D03*
D12*
X198400000Y-114370000D03*
G04 #@! TD*
D18*
G04 #@! TO.C,UE11*
X294775000Y-272520000D03*
D12*
X294775000Y-275060000D03*
X294775000Y-277600000D03*
X294775000Y-280140000D03*
X294775000Y-282680000D03*
X294775000Y-285220000D03*
X294775000Y-287760000D03*
X302395000Y-287760000D03*
X302395000Y-285220000D03*
X302395000Y-282680000D03*
X302395000Y-280140000D03*
X302395000Y-277600000D03*
X302395000Y-275060000D03*
X302395000Y-272520000D03*
G04 #@! TD*
D18*
G04 #@! TO.C,UA8*
X222750000Y-109320000D03*
D12*
X222750000Y-111860000D03*
X222750000Y-114400000D03*
X222750000Y-116940000D03*
X222750000Y-119480000D03*
X222750000Y-122020000D03*
X222750000Y-124560000D03*
X222750000Y-127100000D03*
X230370000Y-127100000D03*
X230370000Y-124560000D03*
X230370000Y-122020000D03*
X230370000Y-119480000D03*
X230370000Y-116940000D03*
X230370000Y-114400000D03*
X230370000Y-111860000D03*
X230370000Y-109320000D03*
G04 #@! TD*
D11*
G04 #@! TO.C,FB13*
X475260000Y-177690000D03*
D12*
X462560000Y-177690000D03*
G04 #@! TD*
D11*
G04 #@! TO.C,C42*
X271925000Y-190795000D03*
D12*
X271925000Y-202987000D03*
G04 #@! TD*
D11*
G04 #@! TO.C,C96*
X145175000Y-190795000D03*
D12*
X145175000Y-202987000D03*
G04 #@! TD*
D11*
G04 #@! TO.C,FB22*
X322805000Y-221595000D03*
D12*
X335505000Y-221595000D03*
G04 #@! TD*
D11*
G04 #@! TO.C,C78*
X470275000Y-126904000D03*
D12*
X470275000Y-139096000D03*
G04 #@! TD*
D11*
G04 #@! TO.C,R35*
X252700000Y-285020000D03*
D12*
X252700000Y-272574000D03*
G04 #@! TD*
D11*
G04 #@! TO.C,R24*
X436950000Y-262175000D03*
D12*
X436950000Y-249729000D03*
G04 #@! TD*
D11*
G04 #@! TO.C,C71*
X416400000Y-113420000D03*
D12*
X416400000Y-125612000D03*
G04 #@! TD*
D18*
G04 #@! TO.C,UA14*
X330050000Y-109620000D03*
D12*
X330050000Y-112160000D03*
X330050000Y-114700000D03*
X330050000Y-117240000D03*
X330050000Y-119780000D03*
X330050000Y-122320000D03*
X330050000Y-124860000D03*
X330050000Y-127400000D03*
X337670000Y-127400000D03*
X337670000Y-124860000D03*
X337670000Y-122320000D03*
X337670000Y-119780000D03*
X337670000Y-117240000D03*
X337670000Y-114700000D03*
X337670000Y-112160000D03*
X337670000Y-109620000D03*
G04 #@! TD*
D11*
G04 #@! TO.C,C65*
X255700000Y-113220000D03*
D12*
X255700000Y-125412000D03*
G04 #@! TD*
D18*
G04 #@! TO.C,UB3*
X134075000Y-150795000D03*
D12*
X134075000Y-153335000D03*
X134075000Y-155875000D03*
X134075000Y-158415000D03*
X134075000Y-160955000D03*
X134075000Y-163495000D03*
X134075000Y-166035000D03*
X134075000Y-168575000D03*
X134075000Y-171115000D03*
X134075000Y-173655000D03*
X141695000Y-173655000D03*
X141695000Y-171115000D03*
X141695000Y-168575000D03*
X141695000Y-166035000D03*
X141695000Y-163495000D03*
X141695000Y-160955000D03*
X141695000Y-158415000D03*
X141695000Y-155875000D03*
X141695000Y-153335000D03*
X141695000Y-150795000D03*
G04 #@! TD*
D18*
G04 #@! TO.C,UA5*
X169800000Y-109440000D03*
D12*
X169800000Y-111980000D03*
X169800000Y-114520000D03*
X169800000Y-117060000D03*
X169800000Y-119600000D03*
X169800000Y-122140000D03*
X169800000Y-124680000D03*
X169800000Y-127220000D03*
X177420000Y-127220000D03*
X177420000Y-124680000D03*
X177420000Y-122140000D03*
X177420000Y-119600000D03*
X177420000Y-117060000D03*
X177420000Y-114520000D03*
X177420000Y-111980000D03*
X177420000Y-109440000D03*
G04 #@! TD*
D18*
G04 #@! TO.C,UD8*
X240550000Y-231495000D03*
D12*
X240550000Y-234035000D03*
X240550000Y-236575000D03*
X240550000Y-239115000D03*
X240550000Y-241655000D03*
X240550000Y-244195000D03*
X240550000Y-246735000D03*
X240550000Y-249275000D03*
X240550000Y-251815000D03*
X240550000Y-254355000D03*
X240550000Y-256895000D03*
X240550000Y-259435000D03*
X255790000Y-259435000D03*
X255790000Y-256895000D03*
X255790000Y-254355000D03*
X255790000Y-251815000D03*
X255790000Y-249275000D03*
X255790000Y-246735000D03*
X255790000Y-244195000D03*
X255790000Y-241655000D03*
X255790000Y-239115000D03*
X255790000Y-236575000D03*
X255790000Y-234035000D03*
X255790000Y-231495000D03*
G04 #@! TD*
D11*
G04 #@! TO.C,C53*
X89400000Y-272974000D03*
D12*
X89400000Y-285166000D03*
G04 #@! TD*
D11*
G04 #@! TO.C,FB5*
X455750000Y-123970000D03*
D12*
X468450000Y-123970000D03*
G04 #@! TD*
D11*
G04 #@! TO.C,R17*
X431223400Y-231417400D03*
D12*
X431223400Y-243863400D03*
G04 #@! TD*
D11*
G04 #@! TO.C,C4*
X170600000Y-98366000D03*
D12*
X170600000Y-86174000D03*
G04 #@! TD*
D16*
G04 #@! TO.C,VR2*
X262599535Y-77588059D03*
D17*
X254830804Y-89681004D03*
X279569196Y-72358996D03*
D16*
X268862990Y-86533199D03*
G04 #@! TD*
D11*
G04 #@! TO.C,R52*
X164725000Y-307945000D03*
D12*
X164725000Y-295499000D03*
G04 #@! TD*
D43*
G04 #@! TO.C,J8*
X155100000Y-78870000D03*
X159100000Y-78870000D03*
X163100000Y-78870000D03*
X167100000Y-78870000D03*
X171100000Y-78870000D03*
X175100000Y-78870000D03*
X183100000Y-78870000D03*
X187100000Y-78870000D03*
G04 #@! TD*
D11*
G04 #@! TO.C,R23*
X431750000Y-262213000D03*
D12*
X431750000Y-249767000D03*
G04 #@! TD*
D19*
G04 #@! TO.C,J_5*
X130200000Y-182966000D03*
X130200000Y-170520000D03*
G04 #@! TD*
D11*
G04 #@! TO.C,C81*
X466017000Y-135295000D03*
D12*
X453825000Y-135295000D03*
G04 #@! TD*
D44*
G04 #@! TO.C,Q1*
X463620000Y-276370000D03*
D45*
X466160000Y-256050000D03*
D46*
X466160000Y-276370000D03*
X468700000Y-276370000D03*
G04 #@! TD*
D41*
G04 #@! TO.C,J4*
X310484800Y-317420000D03*
D42*
X313024800Y-317420000D03*
X315564800Y-317420000D03*
X318104800Y-317420000D03*
X320644800Y-317420000D03*
X323184800Y-317420000D03*
X325724800Y-317420000D03*
X328264800Y-317420000D03*
X330804800Y-317420000D03*
X333344800Y-317420000D03*
X335884800Y-317420000D03*
X338424800Y-317420000D03*
X340964800Y-317420000D03*
X343504800Y-317420000D03*
X346044800Y-317420000D03*
X348584800Y-317420000D03*
X351124800Y-317420000D03*
X353664800Y-317420000D03*
X356204800Y-317420000D03*
X358744800Y-317420000D03*
X361284800Y-317420000D03*
X363824800Y-317420000D03*
X366364800Y-317420000D03*
X368904800Y-317420000D03*
X371444800Y-317420000D03*
X310484800Y-319960000D03*
X313024800Y-319960000D03*
X315564800Y-319960000D03*
X318104800Y-319960000D03*
X320644800Y-319960000D03*
X323184800Y-319960000D03*
X325724800Y-319960000D03*
X328264800Y-319960000D03*
X330804800Y-319960000D03*
X333344800Y-319960000D03*
X335884800Y-319960000D03*
X338424800Y-319960000D03*
X340964800Y-319960000D03*
X343504800Y-319960000D03*
X346044800Y-319960000D03*
X348584800Y-319960000D03*
X351124800Y-319960000D03*
X353664800Y-319960000D03*
X356204800Y-319960000D03*
X358744800Y-319960000D03*
X361284800Y-319960000D03*
X363824800Y-319960000D03*
X366364800Y-319960000D03*
X368904800Y-319960000D03*
X371444800Y-319960000D03*
G04 #@! TD*
D11*
G04 #@! TO.C,C33*
X200475000Y-150704000D03*
D12*
X200475000Y-162896000D03*
G04 #@! TD*
D11*
G04 #@! TO.C,R20*
X452253000Y-244171000D03*
D12*
X452253000Y-231725000D03*
G04 #@! TD*
D11*
G04 #@! TO.C,FB14*
X475300000Y-181620000D03*
D12*
X462600000Y-181620000D03*
G04 #@! TD*
D11*
G04 #@! TO.C,R15*
X412810000Y-231248600D03*
D12*
X412810000Y-243694600D03*
G04 #@! TD*
D11*
G04 #@! TO.C,C94*
X161625000Y-295626000D03*
D12*
X161625000Y-307818000D03*
G04 #@! TD*
D18*
G04 #@! TO.C,UB5*
X169600000Y-150820000D03*
D12*
X169600000Y-153360000D03*
X169600000Y-155900000D03*
X169600000Y-158440000D03*
X169600000Y-160980000D03*
X169600000Y-163520000D03*
X169600000Y-166060000D03*
X169600000Y-168600000D03*
X169600000Y-171140000D03*
X169600000Y-173680000D03*
X177220000Y-173680000D03*
X177220000Y-171140000D03*
X177220000Y-168600000D03*
X177220000Y-166060000D03*
X177220000Y-163520000D03*
X177220000Y-160980000D03*
X177220000Y-158440000D03*
X177220000Y-155900000D03*
X177220000Y-153360000D03*
X177220000Y-150820000D03*
G04 #@! TD*
D11*
G04 #@! TO.C,FB6*
X455700000Y-119820000D03*
D12*
X468400000Y-119820000D03*
G04 #@! TD*
D11*
G04 #@! TO.C,FB17*
X436050000Y-225420000D03*
D12*
X436050000Y-212720000D03*
G04 #@! TD*
D11*
G04 #@! TO.C,C91*
X144150000Y-295003000D03*
D12*
X144150000Y-307195000D03*
G04 #@! TD*
D11*
G04 #@! TO.C,FB15*
X475300000Y-186970000D03*
D12*
X462600000Y-186970000D03*
G04 #@! TD*
D31*
G04 #@! TO.C,J10*
X199760000Y-101215200D03*
X202300000Y-101215200D03*
X207380000Y-101215200D03*
X209920000Y-101215200D03*
X212460000Y-101215200D03*
X215000000Y-101215200D03*
G04 #@! TD*
D20*
G04 #@! TO.C,CR4*
X189800000Y-88170000D03*
D21*
X184800000Y-88170000D03*
X179800000Y-88170000D03*
X174800000Y-88170000D03*
G04 #@! TD*
D18*
G04 #@! TO.C,UD7*
X215438000Y-231630000D03*
D12*
X215438000Y-234170000D03*
X215438000Y-236710000D03*
X215438000Y-239250000D03*
X215438000Y-241790000D03*
X215438000Y-244330000D03*
X215438000Y-246870000D03*
X215438000Y-249410000D03*
X215438000Y-251950000D03*
X215438000Y-254490000D03*
X215438000Y-257030000D03*
X215438000Y-259570000D03*
X230678000Y-259570000D03*
X230678000Y-257030000D03*
X230678000Y-254490000D03*
X230678000Y-251950000D03*
X230678000Y-249410000D03*
X230678000Y-246870000D03*
X230678000Y-244330000D03*
X230678000Y-241790000D03*
X230678000Y-239250000D03*
X230678000Y-236710000D03*
X230678000Y-234170000D03*
X230678000Y-231630000D03*
G04 #@! TD*
D11*
G04 #@! TO.C,R45*
X398150000Y-272927000D03*
D12*
X398150000Y-285373000D03*
G04 #@! TD*
D11*
G04 #@! TO.C,R50*
X129000000Y-220713000D03*
D12*
X129000000Y-208267000D03*
G04 #@! TD*
D18*
G04 #@! TO.C,UB13*
X339500000Y-151270000D03*
D12*
X339500000Y-153810000D03*
X339500000Y-156350000D03*
X339500000Y-158890000D03*
X339500000Y-161430000D03*
X339500000Y-163970000D03*
X339500000Y-166510000D03*
X339500000Y-169050000D03*
X339500000Y-171590000D03*
X339500000Y-174130000D03*
X339500000Y-176670000D03*
X339500000Y-179210000D03*
X339500000Y-181750000D03*
X339500000Y-184290000D03*
X339500000Y-186830000D03*
X339500000Y-189370000D03*
X339500000Y-191910000D03*
X339500000Y-194450000D03*
X339500000Y-196990000D03*
X339500000Y-199530000D03*
X354740000Y-199530000D03*
X354740000Y-196990000D03*
X354740000Y-194450000D03*
X354740000Y-191910000D03*
X354740000Y-189370000D03*
X354740000Y-186830000D03*
X354740000Y-184290000D03*
X354740000Y-181750000D03*
X354740000Y-179210000D03*
X354740000Y-176670000D03*
X354740000Y-174130000D03*
X354740000Y-171590000D03*
X354740000Y-169050000D03*
X354740000Y-166510000D03*
X354740000Y-163970000D03*
X354740000Y-161430000D03*
X354740000Y-158890000D03*
X354740000Y-156350000D03*
X354740000Y-153810000D03*
X354740000Y-151270000D03*
G04 #@! TD*
D18*
G04 #@! TO.C,UD16*
X440400000Y-231970000D03*
D12*
X440400000Y-234510000D03*
X440400000Y-237050000D03*
X440400000Y-239590000D03*
X448020000Y-239590000D03*
X448020000Y-237050000D03*
X448020000Y-234510000D03*
X448020000Y-231970000D03*
G04 #@! TD*
D11*
G04 #@! TO.C,R13*
X406383800Y-231248600D03*
D12*
X406383800Y-243694600D03*
G04 #@! TD*
D11*
G04 #@! TO.C,FB19*
X399425000Y-223095000D03*
D12*
X412125000Y-223095000D03*
G04 #@! TD*
D11*
G04 #@! TO.C,C40*
X181625000Y-190995000D03*
D12*
X181625000Y-203187000D03*
G04 #@! TD*
D18*
G04 #@! TO.C,UB12*
X314950000Y-151095000D03*
D12*
X314950000Y-153635000D03*
X314950000Y-156175000D03*
X314950000Y-158715000D03*
X314950000Y-161255000D03*
X314950000Y-163795000D03*
X314950000Y-166335000D03*
X314950000Y-168875000D03*
X314950000Y-171415000D03*
X314950000Y-173955000D03*
X314950000Y-176495000D03*
X314950000Y-179035000D03*
X314950000Y-181575000D03*
X314950000Y-184115000D03*
X314950000Y-186655000D03*
X314950000Y-189195000D03*
X314950000Y-191735000D03*
X314950000Y-194275000D03*
X314950000Y-196815000D03*
X314950000Y-199355000D03*
X330190000Y-199355000D03*
X330190000Y-196815000D03*
X330190000Y-194275000D03*
X330190000Y-191735000D03*
X330190000Y-189195000D03*
X330190000Y-186655000D03*
X330190000Y-184115000D03*
X330190000Y-181575000D03*
X330190000Y-179035000D03*
X330190000Y-176495000D03*
X330190000Y-173955000D03*
X330190000Y-171415000D03*
X330190000Y-168875000D03*
X330190000Y-166335000D03*
X330190000Y-163795000D03*
X330190000Y-161255000D03*
X330190000Y-158715000D03*
X330190000Y-156175000D03*
X330190000Y-153635000D03*
X330190000Y-151095000D03*
G04 #@! TD*
D11*
G04 #@! TO.C,R34*
X237350000Y-285263000D03*
D12*
X237350000Y-272817000D03*
G04 #@! TD*
D18*
G04 #@! TO.C,UC12*
X439925000Y-176670000D03*
D12*
X439925000Y-179210000D03*
X439925000Y-181750000D03*
X439925000Y-184290000D03*
X439925000Y-186830000D03*
X439925000Y-189370000D03*
X439925000Y-191910000D03*
X439925000Y-194450000D03*
X447545000Y-194450000D03*
X447545000Y-191910000D03*
X447545000Y-189370000D03*
X447545000Y-186830000D03*
X447545000Y-184290000D03*
X447545000Y-181750000D03*
X447545000Y-179210000D03*
X447545000Y-176670000D03*
G04 #@! TD*
D11*
G04 #@! TO.C,C73*
X467100000Y-96612000D03*
D12*
X467100000Y-84420000D03*
G04 #@! TD*
D11*
G04 #@! TO.C,C37*
X453300000Y-163512000D03*
D12*
X453300000Y-151320000D03*
G04 #@! TD*
D11*
G04 #@! TO.C,C85*
X455225000Y-184354000D03*
D12*
X455225000Y-196546000D03*
G04 #@! TD*
D11*
G04 #@! TO.C,VR6*
X454150000Y-272852000D03*
D12*
X454150000Y-285298000D03*
G04 #@! TD*
D11*
G04 #@! TO.C,R10*
X184150000Y-243866000D03*
D12*
X184150000Y-231420000D03*
G04 #@! TD*
D11*
G04 #@! TO.C,C79*
X464350000Y-158574000D03*
D12*
X464350000Y-170766000D03*
G04 #@! TD*
D11*
G04 #@! TO.C,VR5*
X433800000Y-272927000D03*
D12*
X433800000Y-285373000D03*
G04 #@! TD*
D11*
G04 #@! TO.C,C21*
X305410000Y-127116000D03*
D12*
X305410000Y-114924000D03*
G04 #@! TD*
D44*
G04 #@! TO.C,Q2*
X463670000Y-304870000D03*
D45*
X466210000Y-284550000D03*
D46*
X466210000Y-304870000D03*
X468750000Y-304870000D03*
G04 #@! TD*
D11*
G04 #@! TO.C,FB24*
X153875000Y-311170000D03*
D12*
X166575000Y-311170000D03*
G04 #@! TD*
D18*
G04 #@! TO.C,UD12*
X339250000Y-231495000D03*
D12*
X339250000Y-234035000D03*
X339250000Y-236575000D03*
X339250000Y-239115000D03*
X339250000Y-241655000D03*
X339250000Y-244195000D03*
X339250000Y-246735000D03*
X339250000Y-249275000D03*
X339250000Y-251815000D03*
X339250000Y-254355000D03*
X339250000Y-256895000D03*
X339250000Y-259435000D03*
X354490000Y-259435000D03*
X354490000Y-256895000D03*
X354490000Y-254355000D03*
X354490000Y-251815000D03*
X354490000Y-249275000D03*
X354490000Y-246735000D03*
X354490000Y-244195000D03*
X354490000Y-241655000D03*
X354490000Y-239115000D03*
X354490000Y-236575000D03*
X354490000Y-234035000D03*
X354490000Y-231495000D03*
G04 #@! TD*
D18*
G04 #@! TO.C,UE5*
X187125000Y-272770000D03*
D12*
X187125000Y-275310000D03*
X187125000Y-277850000D03*
X187125000Y-280390000D03*
X187125000Y-282930000D03*
X187125000Y-285470000D03*
X187125000Y-288010000D03*
X194745000Y-288010000D03*
X194745000Y-285470000D03*
X194745000Y-282930000D03*
X194745000Y-280390000D03*
X194745000Y-277850000D03*
X194745000Y-275310000D03*
X194745000Y-272770000D03*
G04 #@! TD*
D11*
G04 #@! TO.C,FB12*
X453525000Y-180695000D03*
D12*
X453525000Y-167995000D03*
G04 #@! TD*
D11*
G04 #@! TO.C,C87*
X450025000Y-184354000D03*
D12*
X450025000Y-196546000D03*
G04 #@! TD*
D11*
G04 #@! TO.C,FB11*
X462230000Y-142920000D03*
D12*
X474930000Y-142920000D03*
G04 #@! TD*
D18*
G04 #@! TO.C,UE7*
X222775000Y-272770000D03*
D12*
X222775000Y-275310000D03*
X222775000Y-277850000D03*
X222775000Y-280390000D03*
X222775000Y-282930000D03*
X222775000Y-285470000D03*
X222775000Y-288010000D03*
X230395000Y-288010000D03*
X230395000Y-285470000D03*
X230395000Y-282930000D03*
X230395000Y-280390000D03*
X230395000Y-277850000D03*
X230395000Y-275310000D03*
X230395000Y-272770000D03*
G04 #@! TD*
D11*
G04 #@! TO.C,L1*
X166592000Y-283245000D03*
D12*
X154400000Y-283245000D03*
G04 #@! TD*
D18*
G04 #@! TO.C,UD13*
X365950000Y-231555000D03*
D12*
X365950000Y-234095000D03*
X365950000Y-236635000D03*
X365950000Y-239175000D03*
X365950000Y-241715000D03*
X365950000Y-244255000D03*
X365950000Y-246795000D03*
X365950000Y-249335000D03*
X365950000Y-251875000D03*
X365950000Y-254415000D03*
X373570000Y-254415000D03*
X373570000Y-251875000D03*
X373570000Y-249335000D03*
X373570000Y-246795000D03*
X373570000Y-244255000D03*
X373570000Y-241715000D03*
X373570000Y-239175000D03*
X373570000Y-236635000D03*
X373570000Y-234095000D03*
X373570000Y-231555000D03*
G04 #@! TD*
D18*
G04 #@! TO.C,UA16*
X365600000Y-109670000D03*
D12*
X365600000Y-112210000D03*
X365600000Y-114750000D03*
X365600000Y-117290000D03*
X365600000Y-119830000D03*
X365600000Y-122370000D03*
X365600000Y-124910000D03*
X365600000Y-127450000D03*
X373220000Y-127450000D03*
X373220000Y-124910000D03*
X373220000Y-122370000D03*
X373220000Y-119830000D03*
X373220000Y-117290000D03*
X373220000Y-114750000D03*
X373220000Y-112210000D03*
X373220000Y-109670000D03*
G04 #@! TD*
D11*
G04 #@! TO.C,J17*
X231200000Y-223864000D03*
X231200000Y-214720000D03*
X236788000Y-223864000D03*
X236788000Y-214720000D03*
X239328000Y-223864000D03*
X239328000Y-214720000D03*
X241868000Y-223864000D03*
X241868000Y-214720000D03*
X244408000Y-223864000D03*
X244408000Y-214720000D03*
X246948000Y-223864000D03*
X246948000Y-214720000D03*
X249488000Y-223864000D03*
X249488000Y-214720000D03*
X252028000Y-223864000D03*
X252028000Y-214720000D03*
G04 #@! TD*
D26*
G04 #@! TO.C,H3*
X133900000Y-296170000D03*
G04 #@! TD*
D11*
G04 #@! TO.C,J15*
X254775000Y-223864000D03*
X254775000Y-214720000D03*
X257315000Y-223864000D03*
X257315000Y-214720000D03*
X261633000Y-223864000D03*
X261633000Y-214720000D03*
X264173000Y-223864000D03*
X264173000Y-214720000D03*
X266713000Y-223864000D03*
X266713000Y-214720000D03*
X269253000Y-223864000D03*
X269253000Y-214720000D03*
X271793000Y-223864000D03*
X271793000Y-214720000D03*
X274333000Y-223864000D03*
X274333000Y-214720000D03*
G04 #@! TD*
D18*
G04 #@! TO.C,UB15*
X389625000Y-151095000D03*
D12*
X389625000Y-153635000D03*
X389625000Y-156175000D03*
X389625000Y-158715000D03*
X389625000Y-161255000D03*
X389625000Y-163795000D03*
X389625000Y-166335000D03*
X389625000Y-168875000D03*
X389625000Y-171415000D03*
X389625000Y-173955000D03*
X389625000Y-176495000D03*
X389625000Y-179035000D03*
X389625000Y-181575000D03*
X389625000Y-184115000D03*
X389625000Y-186655000D03*
X389625000Y-189195000D03*
X389625000Y-191735000D03*
X389625000Y-194275000D03*
X389625000Y-196815000D03*
X389625000Y-199355000D03*
X404865000Y-199355000D03*
X404865000Y-196815000D03*
X404865000Y-194275000D03*
X404865000Y-191735000D03*
X404865000Y-189195000D03*
X404865000Y-186655000D03*
X404865000Y-184115000D03*
X404865000Y-181575000D03*
X404865000Y-179035000D03*
X404865000Y-176495000D03*
X404865000Y-173955000D03*
X404865000Y-171415000D03*
X404865000Y-168875000D03*
X404865000Y-166335000D03*
X404865000Y-163795000D03*
X404865000Y-161255000D03*
X404865000Y-158715000D03*
X404865000Y-156175000D03*
X404865000Y-153635000D03*
X404865000Y-151095000D03*
G04 #@! TD*
D25*
G04 #@! TO.C,REF5*
X287400000Y-102120000D03*
G04 #@! TD*
D11*
G04 #@! TO.C,R8*
X165654000Y-231697000D03*
D12*
X165654000Y-244143000D03*
G04 #@! TD*
D11*
G04 #@! TO.C,C59*
X401275000Y-272729000D03*
D12*
X401275000Y-284921000D03*
G04 #@! TD*
D11*
G04 #@! TO.C,C12*
X109750000Y-114354000D03*
D12*
X109750000Y-126546000D03*
G04 #@! TD*
D11*
G04 #@! TO.C,R44*
X395600000Y-272902000D03*
D12*
X395600000Y-285348000D03*
G04 #@! TD*
D29*
G04 #@! TO.C,CR7*
X404908000Y-101320000D03*
D30*
X417100000Y-101320000D03*
G04 #@! TD*
D11*
G04 #@! TO.C,L2*
X457966000Y-199645000D03*
D12*
X445774000Y-199645000D03*
G04 #@! TD*
D11*
G04 #@! TO.C,R51*
X141178200Y-307626800D03*
D12*
X141178200Y-295180800D03*
G04 #@! TD*
D11*
G04 #@! TO.C,C75*
X270250000Y-126712000D03*
D12*
X270250000Y-114520000D03*
G04 #@! TD*
D18*
G04 #@! TO.C,UB11*
X294500000Y-151015000D03*
D12*
X294500000Y-153555000D03*
X294500000Y-156095000D03*
X294500000Y-158635000D03*
X294500000Y-161175000D03*
X294500000Y-163715000D03*
X294500000Y-166255000D03*
X302120000Y-166255000D03*
X302120000Y-163715000D03*
X302120000Y-161175000D03*
X302120000Y-158635000D03*
X302120000Y-156095000D03*
X302120000Y-153555000D03*
X302120000Y-151015000D03*
G04 #@! TD*
D18*
G04 #@! TO.C,UA18*
X401700000Y-109720000D03*
D12*
X401700000Y-112260000D03*
X401700000Y-114800000D03*
X401700000Y-117340000D03*
X401700000Y-119880000D03*
X401700000Y-122420000D03*
X401700000Y-124960000D03*
X401700000Y-127500000D03*
X409320000Y-127500000D03*
X409320000Y-124960000D03*
X409320000Y-122420000D03*
X409320000Y-119880000D03*
X409320000Y-117340000D03*
X409320000Y-114800000D03*
X409320000Y-112260000D03*
X409320000Y-109720000D03*
G04 #@! TD*
D11*
G04 #@! TO.C,FB29*
X445450000Y-202820000D03*
D12*
X458150000Y-202820000D03*
G04 #@! TD*
D23*
G04 #@! TO.C,C16*
X217805000Y-127508000D03*
D24*
X217805000Y-108712000D03*
G04 #@! TD*
D11*
G04 #@! TO.C,R27*
X453500000Y-261966000D03*
D12*
X453500000Y-249520000D03*
G04 #@! TD*
D18*
G04 #@! TO.C,UD14*
X383925000Y-231605000D03*
D12*
X383925000Y-234145000D03*
X383925000Y-236685000D03*
X383925000Y-239225000D03*
X383925000Y-241765000D03*
X383925000Y-244305000D03*
X383925000Y-246845000D03*
X383925000Y-249385000D03*
X383925000Y-251925000D03*
X383925000Y-254465000D03*
X391545000Y-254465000D03*
X391545000Y-251925000D03*
X391545000Y-249385000D03*
X391545000Y-246845000D03*
X391545000Y-244305000D03*
X391545000Y-241765000D03*
X391545000Y-239225000D03*
X391545000Y-236685000D03*
X391545000Y-234145000D03*
X391545000Y-231605000D03*
G04 #@! TD*
D18*
G04 #@! TO.C,C6*
X225400000Y-83670000D03*
D11*
X225400000Y-81170000D03*
G04 #@! TD*
D23*
G04 #@! TO.C,C7*
X258734000Y-101470000D03*
D24*
X278800000Y-101470000D03*
G04 #@! TD*
M02*
