M48
; DRILL file {KiCad 9.0.3-unknown-202507311736~b5c2ed30be~ubuntu24.04.1} date 2025-08-04T14:24:49+0100
; FORMAT={-:-/ absolute / metric / decimal}
; #@! TF.CreationDate,2025-08-04T14:24:49+01:00
; #@! TF.GenerationSoftware,Kicad,Pcbnew,9.0.3-unknown-202507311736~b5c2ed30be~ubuntu24.04.1
; #@! TF.FileFunction,Plated,1,2,PTH
FMAT,2
METRIC
; #@! TA.AperFunction,Plated,PTH,ViaDrill
T1C0.700
; #@! TA.AperFunction,Plated,PTH,ComponentDrill
T2C0.700
; #@! TA.AperFunction,Plated,PTH,ComponentDrill
T3C0.800
; #@! TA.AperFunction,Plated,PTH,ComponentDrill
T4C1.000
; #@! TA.AperFunction,Plated,PTH,ComponentDrill
T5C1.100
; #@! TA.AperFunction,Plated,PTH,ComponentDrill
T6C1.200
; #@! TA.AperFunction,Plated,PTH,ComponentDrill
T7C1.300
; #@! TA.AperFunction,Plated,PTH,ComponentDrill
T8C1.500
; #@! TA.AperFunction,Plated,PTH,ComponentDrill
T9C1.600
; #@! TA.AperFunction,Plated,PTH,ComponentDrill
T10C2.000
; #@! TA.AperFunction,Plated,PTH,ComponentDrill
T11C2.200
; #@! TA.AperFunction,Plated,PTH,ComponentDrill
T12C3.000
; #@! TA.AperFunction,Plated,PTH,ComponentDrill
T13C3.500
; #@! TA.AperFunction,Plated,PTH,ComponentDrill
T14C4.000
%
G90
G05
T1
X90.95Y-281.47
X92.35Y-256.92
X92.5Y-217.82
X92.8Y-155.77
X93.85Y-180.545
X94.6Y-215.77
X94.85Y-260.37
X95.0Y-183.12
X95.25Y-276.87
X96.1Y-137.37
X96.35Y-224.62
X97.45Y-258.97
X97.5Y-284.02
X97.6Y-218.77
X97.6Y-262.02
X97.6Y-264.57
X98.15Y-171.67
X98.25Y-289.12
X98.7Y-142.37
X99.0Y-220.82
X100.3Y-194.57
X100.5Y-222.72
X101.0Y-153.07
X101.1Y-140.02
X101.85Y-244.22
X101.95Y-253.97
X102.2Y-155.42
X102.4Y-246.47
X102.7Y-276.47
X102.75Y-163.47
X102.95Y-280.02
X103.45Y-116.32
X103.53Y-282.14
X103.7Y-242.42
X104.15Y-154.52
X104.3Y-197.27
X104.4Y-245.17
X104.55Y-178.72
X105.05Y-217.62
X106.45Y-256.42
X106.65Y-289.07
X107.5Y-225.27
X108.8Y-155.92
X108.9Y-171.72
X108.95Y-246.37
X110.1Y-262.47
X111.3Y-279.17
X111.4Y-236.12
X111.8Y-288.02
X112.3Y-195.82
X112.45Y-217.67
X112.5Y-156.92
X113.05Y-289.57
X114.1Y-219.62
X114.5Y-272.67
X114.9Y-225.32
X115.2Y-259.82
X116.9Y-270.22
X117.05Y-141.12
X117.1Y-255.32
X118.4Y-267.97
X118.8Y-139.77
X118.9Y-142.32
X118.9Y-144.92
X119.0Y-223.87
X119.3Y-110.57
X119.35Y-262.57
X119.38Y-293.31
X119.4Y-290.02
X119.55Y-236.72
X119.6Y-238.72
X119.75Y-180.77
X119.8Y-276.12
X120.25Y-253.32
X120.75Y-203.47
X121.0Y-223.92
X121.3Y-257.92
X121.43Y-270.09
X121.45Y-240.42
X121.5Y-163.47
X121.9Y-242.77
X122.1Y-226.57
X123.2Y-258.57
X123.85Y-139.77
X123.95Y-255.97
X124.45Y-295.87
X124.9Y-225.47
X125.15Y-279.17
X125.2Y-213.72
X125.3Y-266.02
X126.2Y-270.27
X126.3Y-146.17
X127.4Y-109.27
X127.6Y-260.72
X128.3Y-262.52
X128.5Y-318.47
X129.05Y-185.77
X129.05Y-197.17
X129.4Y-199.87
X129.7Y-236.22
X130.85Y-153.92
X131.2Y-235.02
X131.45Y-258.62
X131.55Y-179.27
X132.65Y-257.02
X132.7Y-119.37
X132.8Y-141.12
X132.9Y-185.72
X133.5Y-223.02
X133.9Y-270.22
X134.2Y-181.92
X135.1Y-266.02
X136.0Y-215.07
X136.4Y-116.82
X136.4Y-139.77
X136.45Y-180.52
X136.6Y-233.57
X136.7Y-206.17
X137.25Y-224.07
X137.6Y-253.32
X138.3Y-208.72
X138.3Y-213.87
X138.5Y-144.17
X138.8Y-202.32
X139.05Y-261.17
X139.1Y-236.32
X139.75Y-264.97
X140.5Y-180.02
X140.8Y-142.37
X141.3Y-219.02
X141.35Y-253.32
X142.2Y-178.12
X142.73Y-257.29
X143.3Y-219.12
X143.4Y-185.12
X143.5Y-143.62
X143.95Y-272.77
X144.2Y-179.42
X144.9Y-153.22
X145.334Y-213.534
X145.95Y-148.51
X147.4Y-199.87
X147.8Y-139.07
X148.9Y-237.47
X149.0Y-246.82
X149.3Y-148.42
X149.7Y-106.545
X150.35Y-254.62
X151.6Y-139.07
X153.0Y-184.87
X153.0Y-219.27
X153.6Y-232.62
X153.8Y-192.17
X154.09Y-270.21
X154.3Y-224.72
X155.97Y-255.68
X156.8Y-225.32
X157.65Y-254.94
X158.85Y-183.97
X158.95Y-264.52
X159.304Y-131.492
X161.1Y-248.47
X161.1Y-273.02
X161.15Y-139.07
X161.336Y-133.27
X162.0Y-222.82
X162.35Y-106.62
X163.05Y-262.62
X163.622Y-213.534
X163.65Y-175.52
X167.55Y-131.47
X167.55Y-228.52
X170.1Y-183.82
X170.2Y-224.87
X171.15Y-258.77
X171.29Y-270.26
X171.95Y-234.42
X172.65Y-129.77
X172.65Y-264.52
X172.75Y-225.42
X173.85Y-256.07
X174.4Y-318.97
X174.5Y-138.97
X174.65Y-252.32
X175.2Y-141.22
X175.25Y-183.77
X175.25Y-261.47
X175.7Y-276.95
X176.25Y-304.57
X177.338Y-131.492
X178.1Y-265.12
X179.0Y-182.42
X179.7Y-266.22
X180.15Y-106.62
X180.4Y-141.22
X181.4Y-248.595
X183.5Y-259.42
X183.65Y-133.32
X184.45Y-290.57
X184.625Y-138.395
X184.75Y-237.82
X185.4Y-233.67
X186.65Y-265.97
X186.75Y-239.12
X187.95Y-246.52
X188.7Y-222.82
X189.45Y-302.22
X190.9Y-262.02
X190.9Y-317.17
X191.15Y-265.92
X191.65Y-295.32
X193.1Y-268.62
X193.4Y-303.67
X195.0Y-184.02
X195.0Y-259.62
X195.1Y-228.52
X195.15Y-131.42
X195.15Y-232.57
X195.4Y-300.37
X195.65Y-185.92
X197.4Y-139.72
X197.9Y-106.62
X198.8Y-160.37
X199.5Y-185.17
X199.75Y-238.92
X199.95Y-266.42
X200.05Y-133.22
X200.1Y-175.47
X200.2Y-262.17
X200.65Y-312.57
X201.5Y-244.12
X201.6Y-197.02
X201.9Y-184.17
X202.4Y-218.32
X202.7Y-275.02
X202.75Y-158.32
X202.8Y-313.72
X202.91Y-270.27
X204.625Y-218.995
X205.6Y-304.97
X205.65Y-266.57
X205.9Y-228.62
X206.3Y-289.92
X207.25Y-182.72
X207.55Y-309.42
X209.55Y-310.67
X209.6Y-261.32
X209.7Y-139.72
X210.2Y-286.62
X210.75Y-295.12
X212.52Y-270.17
X212.75Y-131.42
X214.0Y-267.12
X214.55Y-281.52
X215.2Y-135.37
X215.43Y-270.23
X215.6Y-262.57
X215.85Y-291.27
X215.9Y-106.57
X216.425Y-183.295
X216.9Y-302.22
X217.17Y-277.8
X217.216Y-211.756
X217.35Y-133.37
X217.7Y-175.434
X218.1Y-259.47
X219.2Y-141.47
X219.35Y-266.37
X219.35Y-275.27
X219.65Y-230.47
X220.35Y-240.37
X221.8Y-135.302
X221.9Y-142.42
X222.35Y-181.27
X222.82Y-292.67
X223.566Y-211.756
X224.3Y-180.22
X224.45Y-142.52
X225.4Y-92.17
X225.4Y-273.52
X226.6Y-264.82
X226.6Y-289.67
X226.95Y-143.02
X227.25Y-209.57
X227.8Y-284.07
X228.05Y-291.27
X228.2Y-272.32
X228.25Y-200.92
X228.3Y-275.02
X228.5Y-196.07
X228.5Y-245.27
X228.6Y-180.92
X228.9Y-268.02
X229.6Y-143.82
X229.9Y-179.42
X230.35Y-131.42
X231.9Y-178.32
X231.9Y-290.67
X232.6Y-183.12
X232.85Y-143.87
X233.3Y-264.82
X234.488Y-105.838
X234.5Y-198.57
X235.6Y-175.434
X236.9Y-184.12
X237.25Y-293.17
X237.3Y-277.47
X238.35Y-303.67
X238.45Y-133.47
X238.8Y-210.77
X239.35Y-184.12
X239.5Y-179.62
X240.65Y-267.07
X240.8Y-219.47
X242.4Y-139.52
X243.1Y-265.82
X243.55Y-305.02
X244.05Y-200.97
X244.05Y-203.77
X244.648Y-175.434
X245.0Y-274.17
X245.75Y-219.52
X245.9Y-178.32
X246.05Y-309.62
X247.9Y-181.62
X248.3Y-131.47
X248.35Y-178.92
X250.25Y-234.82
X250.4Y-180.32
X250.7Y-264.97
X250.75Y-273.47
X252.35Y-107.52
X252.5Y-198.72
X253.4Y-154.72
X253.538Y-131.492
X253.55Y-173.656
X254.0Y-232.52
X254.554Y-133.778
X255.55Y-310.17
X256.1Y-188.82
X256.25Y-219.47
X256.586Y-173.656
X259.0Y-303.57
X259.05Y-266.37
X259.1Y-144.12
X260.3Y-261.12
X260.9Y-143.22
X261.5Y-266.42
X261.7Y-181.52
X261.8Y-232.62
X262.174Y-134.032
X263.1Y-183.62
X263.1Y-203.42
X263.1Y-219.42
X263.5Y-142.72
X264.25Y-301.72
X264.8Y-286.72
X266.25Y-131.52
X266.95Y-184.67
X269.0Y-140.32
X270.03Y-297.6
X270.06Y-261.17
X270.2Y-107.52
X270.5Y-304.07
X270.75Y-184.12
X271.2Y-234.72
X272.15Y-279.97
X272.52Y-182.19
X272.65Y-291.77
X273.2Y-213.07
X273.2Y-242.42
X274.7Y-266.32
X275.0Y-182.22
X275.02Y-270.23
X276.2Y-105.67
X276.4Y-228.52
X276.95Y-181.12
X276.95Y-310.07
X277.05Y-241.22
X277.1Y-207.72
X277.5Y-265.62
X279.55Y-205.57
X279.6Y-224.62
X280.05Y-208.17
X280.65Y-203.57
X280.75Y-221.97
X280.85Y-211.42
X281.6Y-139.92
X284.018Y-131.746
X284.2Y-168.92
X285.0Y-148.47
X285.55Y-260.97
X285.8Y-199.27
X286.2Y-162.52
X286.45Y-297.62
X286.55Y-214.52
X287.25Y-287.57
X287.45Y-294.22
X287.8Y-282.62
X288.4Y-257.72
X289.15Y-290.17
X289.25Y-133.92
X290.724Y-153.184
X291.232Y-156.536
X292.25Y-294.47
X292.64Y-270.13
X292.9Y-174.47
X294.76Y-297.57
X296.4Y-218.97
X296.921Y-161.566
X297.2Y-281.82
X297.226Y-265.553
X297.7Y-158.12
X297.8Y-205.02
X298.801Y-155.876
X299.36Y-152.066
X300.528Y-134.032
X300.782Y-201.088
X302.0Y-131.87
X302.25Y-294.42
X303.75Y-172.22
X304.95Y-99.77
X305.25Y-107.02
X306.1Y-277.52
X306.2Y-301.57
X306.35Y-298.82
X306.4Y-175.67
X307.5Y-294.32
X307.792Y-172.183
X308.1Y-199.82
X308.351Y-168.576
X309.113Y-166.544
X309.4Y-260.82
X309.52Y-163.039
X310.2Y-197.97
X310.2Y-203.52
X310.45Y-239.87
X310.5Y-224.72
X310.688Y-155.114
X310.891Y-161.312
X311.2Y-275.77
X311.399Y-157.857
X311.63Y-315.25
X312.822Y-155.114
X313.634Y-262.912
X314.75Y-201.57
X316.1Y-263.67
X316.7Y-205.42
X316.75Y-185.62
X316.8Y-192.92
X317.175Y-139.895
X317.902Y-215.058
X319.3Y-262.32
X319.75Y-131.97
X320.4Y-205.82
X320.4Y-218.97
X320.594Y-223.491
X320.95Y-149.47
X322.575Y-226.539
X322.7Y-133.82
X323.6Y-107.07
X325.0Y-144.52
X325.8Y-267.42
X327.1Y-144.52
X327.9Y-203.72
X329.0Y-215.92
X329.2Y-221.52
X331.8Y-142.22
X332.2Y-189.82
X332.786Y-149.526
X333.0Y-306.42
X333.9Y-260.92
X334.056Y-201.85
X334.1Y-279.87
X335.45Y-217.07
X336.088Y-199.564
X336.5Y-151.07
X336.75Y-215.22
X336.95Y-300.27
X337.35Y-262.82
X337.358Y-132.0
X339.0Y-304.92
X339.05Y-276.12
X339.35Y-261.67
X339.4Y-205.62
X339.5Y-291.82
X339.95Y-225.47
X340.45Y-211.92
X341.3Y-107.07
X341.7Y-142.32
X341.75Y-224.12
X341.8Y-208.32
X341.9Y-277.52
X342.1Y-287.87
X342.1Y-290.42
X342.35Y-213.72
X342.45Y-306.67
X343.1Y-216.42
X343.8Y-141.02
X343.85Y-268.92
X345.5Y-164.97
X345.6Y-293.22
X345.65Y-153.72
X346.6Y-306.72
X347.5Y-135.72
X348.75Y-303.32
X350.2Y-135.22
X352.3Y-136.52
X352.7Y-310.12
X352.8Y-145.82
X353.2Y-214.42
X353.5Y-216.72
X353.8Y-299.82
X354.0Y-139.42
X354.5Y-208.92
X354.95Y-280.52
X355.05Y-296.17
X355.1Y-224.22
X355.3Y-131.72
X355.3Y-146.62
X356.4Y-160.07
X357.2Y-223.72
X357.6Y-158.47
X357.6Y-305.02
X358.35Y-106.97
X359.1Y-160.02
X359.1Y-213.92
X359.1Y-310.12
X359.35Y-306.82
X360.218Y-201.85
X360.3Y-168.97
X360.75Y-209.37
X360.8Y-216.62
X361.0Y-258.22
X361.9Y-210.82
X362.0Y-231.92
X362.6Y-251.12
X363.05Y-237.32
X363.35Y-212.17
X363.4Y-249.02
X364.05Y-261.67
X366.3Y-268.32
X368.91Y-295.81
X369.15Y-258.72
X369.2Y-293.07
X373.1Y-307.22
X373.15Y-131.62
X374.85Y-258.87
X374.95Y-143.32
X375.35Y-300.57
X375.8Y-216.62
X376.4Y-214.02
X377.05Y-145.22
X377.45Y-107.32
X377.75Y-235.67
X378.25Y-208.87
X378.7Y-240.92
X379.2Y-283.47
X379.522Y-201.85
X379.75Y-296.37
X380.0Y-280.27
X380.05Y-210.92
X380.15Y-232.82
X380.5Y-269.92
X380.7Y-249.02
X380.7Y-275.02
X381.65Y-131.72
X382.85Y-213.42
X383.1Y-261.47
X383.5Y-134.87
X384.75Y-198.87
X384.8Y-267.62
X385.25Y-201.17
X385.4Y-136.12
X385.7Y-235.02
X385.7Y-242.82
X386.6Y-266.42
X387.325Y-137.995
X388.9Y-290.52
X389.15Y-223.67
X389.3Y-204.22
X389.425Y-136.895
X391.2Y-218.02
X391.206Y-131.746
X391.5Y-213.52
X391.7Y-224.52
X391.9Y-145.22
X394.4Y-144.42
X395.05Y-246.82
X395.6Y-107.87
X395.9Y-209.62
X397.048Y-293.036
X397.05Y-256.57
X397.15Y-217.87
X397.4Y-210.92
X397.55Y-143.02
X398.318Y-233.346
X399.15Y-241.57
X399.2Y-212.92
X399.3Y-219.32
X400.3Y-235.77
X400.3Y-297.27
X401.2Y-220.62
X401.8Y-250.67
X401.874Y-293.036
X401.9Y-226.32
X402.05Y-154.57
X402.2Y-133.92
X403.15Y-248.77
X403.15Y-276.42
X403.906Y-240.204
X404.16Y-253.158
X404.3Y-226.32
X404.9Y-279.67
X405.4Y-145.82
X405.7Y-312.92
X406.65Y-276.82
X406.7Y-287.448
X407.0Y-246.72
X407.1Y-149.42
X407.7Y-228.92
X407.97Y-274.494
X409.1Y-196.17
X409.35Y-131.57
X409.7Y-312.92
X410.4Y-273.97
X410.5Y-233.12
X410.55Y-267.97
X410.764Y-282.876
X410.8Y-199.72
X411.1Y-150.82
X411.25Y-105.57
X411.8Y-191.57
X411.95Y-141.22
X412.1Y-174.02
X412.2Y-227.52
X413.7Y-312.92
X413.812Y-297.1
X414.0Y-239.27
X414.2Y-261.62
X416.3Y-190.52
X417.368Y-295.83
X417.65Y-229.07
X417.7Y-312.92
X418.05Y-258.97
X420.15Y-269.99
X421.2Y-215.57
X421.35Y-138.07
X421.7Y-240.62
X421.7Y-312.92
X423.3Y-243.52
X425.25Y-131.77
X425.25Y-145.82
X425.5Y-312.92
X426.65Y-207.17
X427.85Y-131.17
X427.95Y-204.02
X428.45Y-139.37
X430.25Y-142.52
X430.576Y-137.334
X431.75Y-298.22
X434.0Y-128.47
X434.45Y-171.62
X434.7Y-156.72
X434.75Y-134.82
X434.85Y-194.97
X435.3Y-142.52
X435.45Y-174.67
X436.0Y-179.02
X436.1Y-161.42
X437.25Y-268.52
X438.05Y-134.97
X438.1Y-148.17
X438.4Y-270.82
X440.45Y-171.42
X441.75Y-132.82
X442.3Y-295.62
X443.05Y-135.87
X443.1Y-303.92
X443.15Y-139.82
X443.35Y-173.22
X443.4Y-272.52
X443.65Y-282.57
X445.1Y-298.87
X446.2Y-173.92
X447.7Y-140.92
X448.65Y-173.47
X450.5Y-180.17
X450.85Y-205.27
X453.182Y-307.006
X453.5Y-176.62
X455.3Y-277.77
X455.8Y-269.17
X456.4Y-198.22
X456.6Y-163.07
X457.5Y-146.32
X458.8Y-145.22
X459.1Y-295.27
X459.8Y-143.62
X461.15Y-152.42
X461.55Y-194.07
X461.8Y-272.22
X463.3Y-227.62
X463.55Y-241.02
X464.0Y-217.87
X464.8Y-155.87
X464.8Y-238.92
X465.55Y-207.02
X465.8Y-124.02
X466.15Y-229.47
X466.8Y-160.67
X467.3Y-225.72
X468.3Y-131.52
X468.35Y-166.47
X471.0Y-201.37
X471.35Y-204.57
X471.45Y-124.02
X472.2Y-141.42
X472.6Y-138.67
X473.4Y-221.82
X473.4Y-224.32
X473.5Y-215.62
X474.0Y-140.17
X474.0Y-195.12
X474.4Y-294.37
X475.3Y-211.62
X475.3Y-214.27
X475.9Y-221.92
X476.5Y-203.42
X476.55Y-247.32
X476.65Y-290.32
X476.75Y-294.12
X476.85Y-297.92
X476.95Y-309.62
X477.0Y-301.72
X477.0Y-305.97
T2
X96.35Y-254.72
X96.35Y-267.166
X98.9Y-254.72
X98.9Y-267.166
X110.1Y-254.57
X110.1Y-267.016
X115.2Y-254.62
X115.2Y-267.066
X124.004Y-185.82
X124.15Y-170.524
X124.15Y-182.97
X127.65Y-170.52
X127.65Y-182.966
X130.2Y-170.52
X130.2Y-182.966
X136.45Y-185.82
T3
X89.4Y-272.974
X89.4Y-285.166
X91.55Y-190.654
X91.55Y-202.846
X91.65Y-231.404
X91.65Y-243.596
X92.5Y-272.68
X92.5Y-275.22
X92.5Y-277.76
X92.5Y-280.3
X92.5Y-282.84
X92.5Y-285.38
X92.5Y-287.92
X92.75Y-150.824
X92.75Y-163.016
X94.55Y-190.777
X94.55Y-203.223
X98.4Y-231.17
X98.4Y-233.71
X98.4Y-236.25
X98.4Y-238.79
X98.4Y-241.33
X98.4Y-243.87
X98.4Y-246.41
X98.525Y-190.745
X98.525Y-193.285
X98.525Y-195.825
X98.525Y-198.365
X98.525Y-200.905
X98.525Y-203.445
X98.525Y-205.985
X98.55Y-150.755
X98.55Y-153.295
X98.55Y-155.835
X98.55Y-158.375
X98.55Y-160.915
X98.55Y-163.455
X98.55Y-165.995
X100.12Y-272.68
X100.12Y-275.22
X100.12Y-277.76
X100.12Y-280.3
X100.12Y-282.84
X100.12Y-285.38
X100.12Y-287.92
X103.525Y-272.895
X103.525Y-285.341
X103.59Y-220.17
X103.65Y-223.92
X106.02Y-231.17
X106.02Y-233.71
X106.02Y-236.25
X106.02Y-238.79
X106.02Y-241.33
X106.02Y-243.87
X106.02Y-246.41
X106.145Y-190.745
X106.145Y-193.285
X106.145Y-195.825
X106.145Y-198.365
X106.145Y-200.905
X106.145Y-203.445
X106.145Y-205.985
X106.17Y-150.755
X106.17Y-153.295
X106.17Y-155.835
X106.17Y-158.375
X106.17Y-160.915
X106.17Y-163.455
X106.17Y-165.995
X109.025Y-272.745
X109.025Y-275.285
X109.025Y-277.825
X109.025Y-280.365
X109.025Y-282.905
X109.025Y-285.445
X109.025Y-287.985
X109.025Y-290.525
X109.75Y-114.354
X109.75Y-126.546
X109.95Y-190.952
X109.95Y-203.398
X111.21Y-220.17
X111.27Y-223.92
X111.4Y-231.17
X111.4Y-243.616
X112.575Y-191.002
X112.575Y-203.448
X115.7Y-223.52
X115.95Y-109.37
X115.95Y-111.91
X115.95Y-114.45
X115.95Y-116.99
X115.95Y-119.53
X115.95Y-122.07
X115.95Y-124.61
X115.95Y-127.15
X116.15Y-231.17
X116.15Y-233.71
X116.15Y-236.25
X116.15Y-238.79
X116.15Y-241.33
X116.15Y-243.87
X116.15Y-246.41
X116.475Y-150.82
X116.475Y-153.36
X116.475Y-155.9
X116.475Y-158.44
X116.475Y-160.98
X116.475Y-163.52
X116.475Y-166.06
X116.645Y-272.745
X116.645Y-275.285
X116.645Y-277.825
X116.645Y-280.365
X116.645Y-282.905
X116.645Y-285.445
X116.645Y-287.985
X116.645Y-290.525
X116.725Y-190.705
X116.725Y-193.245
X116.725Y-195.785
X116.725Y-198.325
X116.725Y-200.865
X116.725Y-203.405
X116.725Y-205.945
X117.202Y-211.02
X117.202Y-215.67
X120.25Y-211.02
X120.25Y-215.67
X120.874Y-261.32
X123.125Y-272.82
X123.125Y-275.36
X123.125Y-277.9
X123.125Y-280.44
X123.125Y-282.98
X123.125Y-285.52
X123.125Y-288.06
X123.298Y-211.02
X123.298Y-215.67
X123.57Y-109.37
X123.57Y-111.91
X123.57Y-114.45
X123.57Y-116.99
X123.57Y-119.53
X123.57Y-122.07
X123.57Y-124.61
X123.57Y-127.15
X123.77Y-231.17
X123.77Y-233.71
X123.77Y-236.25
X123.77Y-238.79
X123.77Y-241.33
X123.77Y-243.87
X123.77Y-246.41
X124.095Y-150.82
X124.095Y-153.36
X124.095Y-155.9
X124.095Y-158.44
X124.095Y-160.98
X124.095Y-163.52
X124.095Y-166.06
X124.345Y-190.705
X124.345Y-193.245
X124.345Y-195.785
X124.345Y-198.325
X124.345Y-200.865
X124.345Y-203.405
X124.345Y-205.945
X127.64Y-231.664
X127.64Y-243.856
X127.9Y-190.995
X127.9Y-203.441
X128.325Y-150.874
X128.325Y-163.066
X128.4Y-223.52
X129.0Y-208.267
X129.0Y-220.713
X130.3Y-109.37
X130.3Y-111.91
X130.3Y-114.45
X130.3Y-116.99
X130.3Y-119.53
X130.3Y-122.07
X130.3Y-124.61
X130.3Y-127.15
X130.3Y-129.69
X130.3Y-132.23
X130.3Y-134.77
X130.3Y-137.31
X130.745Y-272.82
X130.745Y-275.36
X130.745Y-277.9
X130.745Y-280.44
X130.745Y-282.98
X130.745Y-285.52
X130.745Y-288.06
X133.066Y-261.32
X133.58Y-190.745
X133.58Y-193.285
X133.58Y-195.825
X133.58Y-198.365
X133.58Y-200.905
X133.58Y-203.445
X133.58Y-205.985
X133.58Y-208.525
X133.75Y-231.57
X133.75Y-234.11
X133.75Y-236.65
X133.75Y-239.19
X133.75Y-241.73
X133.75Y-244.27
X133.75Y-246.81
X134.075Y-150.795
X134.075Y-153.335
X134.075Y-155.875
X134.075Y-158.415
X134.075Y-160.955
X134.075Y-163.495
X134.075Y-166.035
X134.075Y-168.575
X134.075Y-171.115
X134.075Y-173.655
X134.13Y-258.52
X135.38Y-219.17
X136.675Y-284.52
X137.55Y-89.923
X137.55Y-94.923
X137.7Y-289.295
X138.13Y-295.181
X138.13Y-307.627
X141.178Y-295.181
X141.178Y-307.627
X141.2Y-190.745
X141.2Y-193.285
X141.2Y-195.825
X141.2Y-198.365
X141.2Y-200.905
X141.2Y-203.445
X141.2Y-205.985
X141.2Y-208.525
X141.37Y-231.57
X141.37Y-234.11
X141.37Y-236.65
X141.37Y-239.19
X141.37Y-241.73
X141.37Y-244.27
X141.37Y-246.81
X141.695Y-150.795
X141.695Y-153.335
X141.695Y-155.875
X141.695Y-158.415
X141.695Y-160.955
X141.695Y-163.495
X141.695Y-166.035
X141.695Y-168.575
X141.695Y-171.115
X141.695Y-173.655
X142.58Y-289.295
X144.15Y-295.003
X144.15Y-307.195
X145.175Y-190.795
X145.175Y-202.987
X145.54Y-109.37
X145.54Y-111.91
X145.54Y-114.45
X145.54Y-116.99
X145.54Y-119.53
X145.54Y-122.07
X145.54Y-124.61
X145.54Y-127.15
X145.54Y-129.69
X145.54Y-132.23
X145.54Y-134.77
X145.54Y-137.31
X146.6Y-86.304
X146.6Y-98.496
X146.65Y-231.654
X146.65Y-243.846
X146.83Y-258.52
X147.2Y-292.57
X147.2Y-295.11
X147.2Y-297.65
X147.2Y-300.19
X147.2Y-302.73
X147.2Y-305.27
X147.2Y-307.81
X148.08Y-219.17
X148.867Y-284.52
X151.4Y-231.63
X151.4Y-234.17
X151.4Y-236.71
X151.4Y-239.25
X151.4Y-241.79
X151.4Y-244.33
X151.4Y-246.87
X151.725Y-150.82
X151.725Y-153.36
X151.725Y-155.9
X151.725Y-158.44
X151.725Y-160.98
X151.725Y-163.52
X151.725Y-166.06
X151.725Y-168.6
X151.725Y-171.14
X151.725Y-173.68
X151.825Y-190.745
X151.825Y-193.285
X151.825Y-195.825
X151.825Y-198.365
X151.825Y-200.905
X151.825Y-203.445
X151.825Y-205.985
X151.825Y-208.525
X151.825Y-211.065
X151.93Y-109.38
X151.93Y-111.92
X151.93Y-114.46
X151.93Y-117.0
X151.93Y-119.54
X151.93Y-122.08
X151.93Y-124.62
X151.93Y-127.16
X153.875Y-311.17
X154.155Y-287.37
X154.4Y-283.245
X154.82Y-292.57
X154.82Y-295.11
X154.82Y-297.65
X154.82Y-300.19
X154.82Y-302.73
X154.82Y-305.27
X154.82Y-307.81
X158.325Y-295.626
X158.325Y-307.818
X159.02Y-231.63
X159.02Y-234.17
X159.02Y-236.71
X159.02Y-239.25
X159.02Y-241.79
X159.02Y-244.33
X159.02Y-246.87
X159.345Y-150.82
X159.345Y-153.36
X159.345Y-155.9
X159.345Y-158.44
X159.345Y-160.98
X159.345Y-163.52
X159.345Y-166.06
X159.345Y-168.6
X159.345Y-171.14
X159.345Y-173.68
X159.445Y-190.745
X159.445Y-193.285
X159.445Y-195.825
X159.445Y-198.365
X159.445Y-200.905
X159.445Y-203.445
X159.445Y-205.985
X159.445Y-208.525
X159.445Y-211.065
X159.55Y-109.38
X159.55Y-111.92
X159.55Y-114.46
X159.55Y-117.0
X159.55Y-119.54
X159.55Y-122.08
X159.55Y-124.62
X159.55Y-127.16
X161.625Y-295.626
X161.625Y-307.818
X162.65Y-114.624
X162.65Y-126.816
X162.9Y-231.674
X162.9Y-244.12
X164.3Y-150.795
X164.3Y-162.987
X164.725Y-295.499
X164.725Y-307.945
X165.654Y-231.697
X165.654Y-244.143
X166.15Y-113.124
X166.15Y-125.316
X166.575Y-311.17
X166.592Y-283.245
X166.855Y-287.37
X169.4Y-231.63
X169.4Y-234.17
X169.4Y-236.71
X169.4Y-239.25
X169.4Y-241.79
X169.4Y-244.33
X169.4Y-246.87
X169.525Y-190.745
X169.525Y-193.285
X169.525Y-195.825
X169.525Y-198.365
X169.525Y-200.905
X169.525Y-203.445
X169.525Y-205.985
X169.525Y-208.525
X169.525Y-211.065
X169.6Y-150.82
X169.6Y-153.36
X169.6Y-155.9
X169.6Y-158.44
X169.6Y-160.98
X169.6Y-163.52
X169.6Y-166.06
X169.6Y-168.6
X169.6Y-171.14
X169.6Y-173.68
X169.8Y-109.44
X169.8Y-111.98
X169.8Y-114.52
X169.8Y-117.06
X169.8Y-119.6
X169.8Y-122.14
X169.8Y-124.68
X169.8Y-127.22
X170.6Y-86.174
X170.6Y-98.366
X173.175Y-272.945
X173.175Y-275.485
X173.175Y-278.025
X173.175Y-280.565
X173.175Y-283.105
X173.175Y-285.645
X173.175Y-288.185
X177.02Y-231.63
X177.02Y-234.17
X177.02Y-236.71
X177.02Y-239.25
X177.02Y-241.79
X177.02Y-244.33
X177.02Y-246.87
X177.145Y-190.745
X177.145Y-193.285
X177.145Y-195.825
X177.145Y-198.365
X177.145Y-200.905
X177.145Y-203.445
X177.145Y-205.985
X177.145Y-208.525
X177.145Y-211.065
X177.22Y-150.82
X177.22Y-153.36
X177.22Y-155.9
X177.22Y-158.44
X177.22Y-160.98
X177.22Y-163.52
X177.22Y-166.06
X177.22Y-168.6
X177.22Y-171.14
X177.22Y-173.68
X177.42Y-109.44
X177.42Y-111.98
X177.42Y-114.52
X177.42Y-117.06
X177.42Y-119.6
X177.42Y-122.14
X177.42Y-124.68
X177.42Y-127.22
X180.45Y-114.374
X180.45Y-126.566
X180.795Y-272.945
X180.795Y-275.485
X180.795Y-278.025
X180.795Y-280.565
X180.795Y-283.105
X180.795Y-285.645
X180.795Y-288.185
X181.625Y-190.995
X181.625Y-203.187
X183.8Y-113.22
X183.8Y-125.412
X183.925Y-273.229
X183.925Y-285.421
X184.15Y-231.42
X184.15Y-243.866
X186.85Y-231.417
X186.85Y-243.863
X187.125Y-272.77
X187.125Y-275.31
X187.125Y-277.85
X187.125Y-280.39
X187.125Y-282.93
X187.125Y-285.47
X187.125Y-288.01
X187.35Y-190.745
X187.35Y-193.285
X187.35Y-195.825
X187.35Y-198.365
X187.35Y-200.905
X187.35Y-203.445
X187.35Y-205.985
X187.35Y-208.525
X187.35Y-211.065
X187.525Y-150.745
X187.525Y-153.285
X187.525Y-155.825
X187.525Y-158.365
X187.525Y-160.905
X187.525Y-163.445
X187.525Y-165.985
X187.525Y-168.525
X187.525Y-171.065
X187.525Y-173.605
X187.55Y-109.37
X187.55Y-111.91
X187.55Y-114.45
X187.55Y-116.99
X187.55Y-119.53
X187.55Y-122.07
X187.55Y-124.61
X187.55Y-127.15
X190.622Y-231.63
X190.622Y-234.17
X190.622Y-236.71
X190.622Y-239.25
X190.622Y-241.79
X190.622Y-244.33
X190.622Y-246.87
X190.622Y-249.41
X190.622Y-251.95
X190.622Y-254.49
X190.622Y-257.03
X190.622Y-259.57
X194.745Y-272.77
X194.745Y-275.31
X194.745Y-277.85
X194.745Y-280.39
X194.745Y-282.93
X194.745Y-285.47
X194.745Y-288.01
X194.97Y-190.745
X194.97Y-193.285
X194.97Y-195.825
X194.97Y-198.365
X194.97Y-200.905
X194.97Y-203.445
X194.97Y-205.985
X194.97Y-208.525
X194.97Y-211.065
X195.145Y-150.745
X195.145Y-153.285
X195.145Y-155.825
X195.145Y-158.365
X195.145Y-160.905
X195.145Y-163.445
X195.145Y-165.985
X195.145Y-168.525
X195.145Y-171.065
X195.145Y-173.605
X195.17Y-109.37
X195.17Y-111.91
X195.17Y-114.45
X195.17Y-116.99
X195.17Y-119.53
X195.17Y-122.07
X195.17Y-124.61
X195.17Y-127.15
X198.4Y-114.37
X198.4Y-126.562
X198.625Y-272.87
X198.625Y-285.062
X200.475Y-150.704
X200.475Y-162.896
X201.6Y-113.22
X201.6Y-125.412
X204.975Y-272.67
X204.975Y-275.21
X204.975Y-277.75
X204.975Y-280.29
X204.975Y-282.83
X204.975Y-285.37
X204.975Y-287.91
X205.05Y-109.32
X205.05Y-111.86
X205.05Y-114.4
X205.05Y-116.94
X205.05Y-119.48
X205.05Y-122.02
X205.05Y-124.56
X205.05Y-127.1
X205.1Y-150.795
X205.1Y-153.335
X205.1Y-155.875
X205.1Y-158.415
X205.1Y-160.955
X205.1Y-163.495
X205.1Y-166.035
X205.1Y-168.575
X205.1Y-171.115
X205.1Y-173.655
X205.278Y-190.674
X205.278Y-193.214
X205.278Y-195.754
X205.278Y-198.294
X205.278Y-200.834
X205.278Y-203.374
X205.278Y-205.914
X205.278Y-208.454
X205.278Y-210.994
X205.862Y-231.63
X205.862Y-234.17
X205.862Y-236.71
X205.862Y-239.25
X205.862Y-241.79
X205.862Y-244.33
X205.862Y-246.87
X205.862Y-249.41
X205.862Y-251.95
X205.862Y-254.49
X205.862Y-257.03
X205.862Y-259.57
X210.15Y-229.074
X210.15Y-241.266
X212.595Y-272.67
X212.595Y-275.21
X212.595Y-277.75
X212.595Y-280.29
X212.595Y-282.83
X212.595Y-285.37
X212.595Y-287.91
X212.67Y-109.32
X212.67Y-111.86
X212.67Y-114.4
X212.67Y-116.94
X212.67Y-119.48
X212.67Y-122.02
X212.67Y-124.56
X212.67Y-127.1
X212.72Y-150.795
X212.72Y-153.335
X212.72Y-155.875
X212.72Y-158.415
X212.72Y-160.955
X212.72Y-163.495
X212.72Y-166.035
X212.72Y-168.575
X212.72Y-171.115
X212.72Y-173.655
X212.898Y-190.674
X212.898Y-193.214
X212.898Y-195.754
X212.898Y-198.294
X212.898Y-200.834
X212.898Y-203.374
X212.898Y-205.914
X212.898Y-208.454
X212.898Y-210.994
X215.438Y-231.63
X215.438Y-234.17
X215.438Y-236.71
X215.438Y-239.25
X215.438Y-241.79
X215.438Y-244.33
X215.438Y-246.87
X215.438Y-249.41
X215.438Y-251.95
X215.438Y-254.49
X215.438Y-257.03
X215.438Y-259.57
X217.225Y-191.304
X217.225Y-203.496
X219.8Y-272.767
X219.8Y-285.213
X220.875Y-214.745
X220.875Y-223.889
X222.75Y-109.32
X222.75Y-111.86
X222.75Y-114.4
X222.75Y-116.94
X222.75Y-119.48
X222.75Y-122.02
X222.75Y-124.56
X222.75Y-127.1
X222.775Y-272.77
X222.775Y-275.31
X222.775Y-277.85
X222.775Y-280.39
X222.775Y-282.93
X222.775Y-285.47
X222.775Y-288.01
X222.8Y-150.62
X222.8Y-153.16
X222.8Y-155.7
X222.8Y-158.24
X222.8Y-160.78
X222.8Y-163.32
X222.8Y-165.86
X222.8Y-168.4
X222.8Y-170.94
X222.8Y-173.48
X223.415Y-214.745
X223.415Y-223.889
X223.53Y-190.745
X223.53Y-193.285
X223.53Y-195.825
X223.53Y-198.365
X223.53Y-200.905
X223.53Y-203.445
X223.53Y-205.985
X223.53Y-208.525
X225.4Y-81.17
X225.4Y-83.67
X225.955Y-214.745
X225.955Y-223.889
X228.495Y-214.745
X228.495Y-223.889
X230.37Y-109.32
X230.37Y-111.86
X230.37Y-114.4
X230.37Y-116.94
X230.37Y-119.48
X230.37Y-122.02
X230.37Y-124.56
X230.37Y-127.1
X230.395Y-272.77
X230.395Y-275.31
X230.395Y-277.85
X230.395Y-280.39
X230.395Y-282.93
X230.395Y-285.47
X230.395Y-288.01
X230.42Y-150.62
X230.42Y-153.16
X230.42Y-155.7
X230.42Y-158.24
X230.42Y-160.78
X230.42Y-163.32
X230.42Y-165.86
X230.42Y-168.4
X230.42Y-170.94
X230.42Y-173.48
X230.678Y-231.63
X230.678Y-234.17
X230.678Y-236.71
X230.678Y-239.25
X230.678Y-241.79
X230.678Y-244.33
X230.678Y-246.87
X230.678Y-249.41
X230.678Y-251.95
X230.678Y-254.49
X230.678Y-257.03
X230.678Y-259.57
X231.15Y-190.745
X231.15Y-193.285
X231.15Y-195.825
X231.15Y-198.365
X231.15Y-200.905
X231.15Y-203.445
X231.15Y-205.985
X231.15Y-208.525
X231.2Y-214.72
X231.2Y-223.864
X234.5Y-272.817
X234.5Y-285.263
X236.175Y-150.745
X236.175Y-162.937
X236.788Y-214.72
X236.788Y-223.864
X237.35Y-272.817
X237.35Y-285.263
X239.328Y-214.72
X239.328Y-223.864
X240.55Y-231.495
X240.55Y-234.035
X240.55Y-236.575
X240.55Y-239.115
X240.55Y-241.655
X240.55Y-244.195
X240.55Y-246.735
X240.55Y-249.275
X240.55Y-251.815
X240.55Y-254.355
X240.55Y-256.895
X240.55Y-259.435
X240.8Y-109.28
X240.8Y-111.82
X240.8Y-114.36
X240.8Y-116.9
X240.8Y-119.44
X240.8Y-121.98
X240.8Y-124.52
X240.8Y-127.06
X240.875Y-150.795
X240.875Y-153.335
X240.875Y-155.875
X240.875Y-158.415
X240.875Y-160.955
X240.875Y-163.495
X240.875Y-166.035
X240.875Y-168.575
X240.875Y-171.115
X240.875Y-173.655
X240.975Y-272.72
X240.975Y-275.26
X240.975Y-277.8
X240.975Y-280.34
X240.975Y-282.88
X240.975Y-285.42
X240.975Y-287.96
X240.975Y-290.5
X240.975Y-293.04
X240.975Y-295.58
X241.15Y-190.745
X241.15Y-193.285
X241.15Y-195.825
X241.15Y-198.365
X241.15Y-200.905
X241.15Y-203.445
X241.15Y-205.985
X241.15Y-208.525
X241.868Y-214.72
X241.868Y-223.864
X244.408Y-214.72
X244.408Y-223.864
X246.948Y-214.72
X246.948Y-223.864
X248.42Y-109.28
X248.42Y-111.82
X248.42Y-114.36
X248.42Y-116.9
X248.42Y-119.44
X248.42Y-121.98
X248.42Y-124.52
X248.42Y-127.06
X248.495Y-150.795
X248.495Y-153.335
X248.495Y-155.875
X248.495Y-158.415
X248.495Y-160.955
X248.495Y-163.495
X248.495Y-166.035
X248.495Y-168.575
X248.495Y-171.115
X248.495Y-173.655
X248.595Y-272.72
X248.595Y-275.26
X248.595Y-277.8
X248.595Y-280.34
X248.595Y-282.88
X248.595Y-285.42
X248.595Y-287.96
X248.595Y-290.5
X248.595Y-293.04
X248.595Y-295.58
X248.77Y-190.745
X248.77Y-193.285
X248.77Y-195.825
X248.77Y-198.365
X248.77Y-200.905
X248.77Y-203.445
X248.77Y-205.985
X248.77Y-208.525
X249.488Y-214.72
X249.488Y-223.864
X251.85Y-114.42
X251.85Y-126.612
X252.028Y-214.72
X252.028Y-223.864
X252.7Y-272.574
X252.7Y-285.02
X254.775Y-214.72
X254.775Y-223.864
X255.325Y-272.395
X255.325Y-284.587
X255.7Y-113.22
X255.7Y-125.412
X255.79Y-231.495
X255.79Y-234.035
X255.79Y-236.575
X255.79Y-239.115
X255.79Y-241.655
X255.79Y-244.195
X255.79Y-246.735
X255.79Y-249.275
X255.79Y-251.815
X255.79Y-254.355
X255.79Y-256.895
X255.79Y-259.435
X257.315Y-214.72
X257.315Y-223.864
X258.6Y-109.32
X258.6Y-111.86
X258.6Y-114.4
X258.6Y-116.94
X258.6Y-119.48
X258.6Y-122.02
X258.6Y-124.56
X258.6Y-127.1
X258.725Y-150.92
X258.725Y-153.46
X258.725Y-156.0
X258.725Y-158.54
X258.725Y-161.08
X258.725Y-163.62
X258.725Y-166.16
X258.725Y-168.7
X258.725Y-171.24
X258.725Y-173.78
X258.975Y-272.72
X258.975Y-275.26
X258.975Y-277.8
X258.975Y-280.34
X258.975Y-282.88
X258.975Y-285.42
X258.975Y-287.96
X258.975Y-290.5
X258.975Y-293.04
X258.975Y-295.58
X259.1Y-190.745
X259.1Y-193.285
X259.1Y-195.825
X259.1Y-198.365
X259.1Y-200.905
X259.1Y-203.445
X259.1Y-205.985
X259.1Y-208.525
X261.633Y-214.72
X261.633Y-223.864
X264.173Y-214.72
X264.173Y-223.864
X265.6Y-231.295
X265.6Y-233.835
X265.6Y-236.375
X265.6Y-238.915
X265.6Y-241.455
X265.6Y-243.995
X265.6Y-246.535
X265.6Y-249.075
X265.6Y-251.615
X265.6Y-254.155
X265.6Y-256.695
X265.6Y-259.235
X266.22Y-109.32
X266.22Y-111.86
X266.22Y-114.4
X266.22Y-116.94
X266.22Y-119.48
X266.22Y-122.02
X266.22Y-124.56
X266.22Y-127.1
X266.345Y-150.92
X266.345Y-153.46
X266.345Y-156.0
X266.345Y-158.54
X266.345Y-161.08
X266.345Y-163.62
X266.345Y-166.16
X266.345Y-168.7
X266.345Y-171.24
X266.345Y-173.78
X266.595Y-272.72
X266.595Y-275.26
X266.595Y-277.8
X266.595Y-280.34
X266.595Y-282.88
X266.595Y-285.42
X266.595Y-287.96
X266.595Y-290.5
X266.595Y-293.04
X266.595Y-295.58
X266.713Y-214.72
X266.713Y-223.864
X266.72Y-190.745
X266.72Y-193.285
X266.72Y-195.825
X266.72Y-198.365
X266.72Y-200.905
X266.72Y-203.445
X266.72Y-205.985
X266.72Y-208.525
X269.253Y-214.72
X269.253Y-223.864
X270.25Y-114.52
X270.25Y-126.712
X271.65Y-151.045
X271.65Y-163.237
X271.793Y-214.72
X271.793Y-223.864
X271.925Y-190.795
X271.925Y-202.987
X272.6Y-272.717
X272.6Y-285.163
X274.333Y-214.72
X274.333Y-223.864
X276.45Y-109.37
X276.45Y-111.91
X276.45Y-114.45
X276.45Y-116.99
X276.45Y-119.53
X276.45Y-122.07
X276.45Y-124.61
X276.45Y-127.15
X277.1Y-272.67
X277.1Y-275.21
X277.1Y-277.75
X277.1Y-280.29
X277.1Y-282.83
X277.1Y-285.37
X277.1Y-287.91
X277.1Y-290.45
X277.1Y-292.99
X277.1Y-295.53
X280.84Y-231.295
X280.84Y-233.835
X280.84Y-236.375
X280.84Y-238.915
X280.84Y-241.455
X280.84Y-243.995
X280.84Y-246.535
X280.84Y-249.075
X280.84Y-251.615
X280.84Y-254.155
X280.84Y-256.695
X280.84Y-259.235
X281.9Y-151.05
X281.9Y-153.59
X281.9Y-156.13
X281.9Y-158.67
X281.9Y-161.21
X281.9Y-163.75
X281.9Y-166.29
X281.9Y-168.83
X281.9Y-171.37
X281.9Y-173.91
X281.9Y-176.45
X281.9Y-178.99
X281.9Y-181.53
X281.9Y-184.07
X281.9Y-186.61
X281.9Y-189.15
X281.9Y-191.69
X281.9Y-194.23
X281.9Y-196.77
X281.9Y-199.31
X284.07Y-109.37
X284.07Y-111.91
X284.07Y-114.45
X284.07Y-116.99
X284.07Y-119.53
X284.07Y-122.07
X284.07Y-124.61
X284.07Y-127.15
X284.72Y-272.67
X284.72Y-275.21
X284.72Y-277.75
X284.72Y-280.29
X284.72Y-282.83
X284.72Y-285.37
X284.72Y-287.91
X284.72Y-290.45
X284.72Y-292.99
X284.72Y-295.53
X285.15Y-229.154
X285.15Y-241.346
X287.45Y-114.928
X287.45Y-127.12
X288.25Y-272.395
X288.25Y-284.841
X290.475Y-231.445
X290.475Y-233.985
X290.475Y-236.525
X290.475Y-239.065
X290.475Y-241.605
X290.475Y-244.145
X290.475Y-246.685
X290.475Y-249.225
X290.475Y-251.765
X290.475Y-254.305
X290.475Y-256.845
X290.475Y-259.385
X291.0Y-272.417
X291.0Y-284.863
X291.1Y-113.22
X291.1Y-125.412
X294.4Y-109.37
X294.4Y-111.91
X294.4Y-114.45
X294.4Y-116.99
X294.4Y-119.53
X294.4Y-122.07
X294.4Y-124.61
X294.4Y-127.15
X294.5Y-151.015
X294.5Y-153.555
X294.5Y-156.095
X294.5Y-158.635
X294.5Y-161.175
X294.5Y-163.715
X294.5Y-166.255
X294.5Y-176.215
X294.5Y-178.755
X294.5Y-181.295
X294.5Y-183.835
X294.5Y-186.375
X294.5Y-188.915
X294.5Y-191.455
X294.5Y-193.995
X294.775Y-272.52
X294.775Y-275.06
X294.775Y-277.6
X294.775Y-280.14
X294.775Y-282.68
X294.775Y-285.22
X294.775Y-287.76
X302.02Y-109.37
X302.02Y-111.91
X302.02Y-114.45
X302.02Y-116.99
X302.02Y-119.53
X302.02Y-122.07
X302.02Y-124.61
X302.02Y-127.15
X302.12Y-151.015
X302.12Y-153.555
X302.12Y-156.095
X302.12Y-158.635
X302.12Y-161.175
X302.12Y-163.715
X302.12Y-166.255
X302.12Y-176.215
X302.12Y-178.755
X302.12Y-181.295
X302.12Y-183.835
X302.12Y-186.375
X302.12Y-188.915
X302.12Y-191.455
X302.12Y-193.995
X302.395Y-272.52
X302.395Y-275.06
X302.395Y-277.6
X302.395Y-280.14
X302.395Y-282.68
X302.395Y-285.22
X302.395Y-287.76
X305.41Y-114.924
X305.41Y-127.116
X305.715Y-231.445
X305.715Y-233.985
X305.715Y-236.525
X305.715Y-239.065
X305.715Y-241.605
X305.715Y-244.145
X305.715Y-246.685
X305.715Y-249.225
X305.715Y-251.765
X305.715Y-254.305
X305.715Y-256.845
X305.715Y-259.385
X306.125Y-272.22
X306.125Y-284.666
X308.725Y-272.004
X308.725Y-284.196
X308.94Y-113.888
X308.94Y-126.08
X312.2Y-109.52
X312.2Y-112.06
X312.2Y-114.6
X312.2Y-117.14
X312.2Y-119.68
X312.2Y-122.22
X312.2Y-124.76
X312.2Y-127.3
X314.95Y-151.095
X314.95Y-153.635
X314.95Y-156.175
X314.95Y-158.715
X314.95Y-161.255
X314.95Y-163.795
X314.95Y-166.335
X314.95Y-168.875
X314.95Y-171.415
X314.95Y-173.955
X314.95Y-176.495
X314.95Y-179.035
X314.95Y-181.575
X314.95Y-184.115
X314.95Y-186.655
X314.95Y-189.195
X314.95Y-191.735
X314.95Y-194.275
X314.95Y-196.815
X314.95Y-199.355
X314.975Y-231.495
X314.975Y-234.035
X314.975Y-236.575
X314.975Y-239.115
X314.975Y-241.655
X314.975Y-244.195
X314.975Y-246.735
X314.975Y-249.275
X314.975Y-251.815
X314.975Y-254.355
X314.975Y-256.895
X314.975Y-259.435
X315.175Y-272.645
X315.175Y-275.185
X315.175Y-277.725
X315.175Y-280.265
X315.175Y-282.805
X315.175Y-285.345
X315.175Y-287.885
X315.175Y-290.425
X315.175Y-292.965
X315.175Y-295.505
X315.175Y-298.045
X315.175Y-300.585
X319.82Y-109.52
X319.82Y-112.06
X319.82Y-114.6
X319.82Y-117.14
X319.82Y-119.68
X319.82Y-122.22
X319.82Y-124.76
X319.82Y-127.3
X322.805Y-221.595
X322.85Y-114.57
X322.85Y-126.762
X326.62Y-113.41
X326.62Y-125.602
X330.05Y-109.62
X330.05Y-112.16
X330.05Y-114.7
X330.05Y-117.24
X330.05Y-119.78
X330.05Y-122.32
X330.05Y-124.86
X330.05Y-127.4
X330.19Y-151.095
X330.19Y-153.635
X330.19Y-156.175
X330.19Y-158.715
X330.19Y-161.255
X330.19Y-163.795
X330.19Y-166.335
X330.19Y-168.875
X330.19Y-171.415
X330.19Y-173.955
X330.19Y-176.495
X330.19Y-179.035
X330.19Y-181.575
X330.19Y-184.115
X330.19Y-186.655
X330.19Y-189.195
X330.19Y-191.735
X330.19Y-194.275
X330.19Y-196.815
X330.19Y-199.355
X330.215Y-231.495
X330.215Y-234.035
X330.215Y-236.575
X330.215Y-239.115
X330.215Y-241.655
X330.215Y-244.195
X330.215Y-246.735
X330.215Y-249.275
X330.215Y-251.815
X330.215Y-254.355
X330.215Y-256.895
X330.215Y-259.435
X330.415Y-272.645
X330.415Y-275.185
X330.415Y-277.725
X330.415Y-280.265
X330.415Y-282.805
X330.415Y-285.345
X330.415Y-287.885
X330.415Y-290.425
X330.415Y-292.965
X330.415Y-295.505
X330.415Y-298.045
X330.415Y-300.585
X333.95Y-229.024
X333.95Y-241.216
X335.475Y-272.552
X335.475Y-284.998
X335.505Y-221.595
X337.67Y-109.62
X337.67Y-112.16
X337.67Y-114.7
X337.67Y-117.24
X337.67Y-119.78
X337.67Y-122.32
X337.67Y-124.86
X337.67Y-127.4
X339.25Y-231.495
X339.25Y-234.035
X339.25Y-236.575
X339.25Y-239.115
X339.25Y-241.655
X339.25Y-244.195
X339.25Y-246.735
X339.25Y-249.275
X339.25Y-251.815
X339.25Y-254.355
X339.25Y-256.895
X339.25Y-259.435
X339.5Y-151.27
X339.5Y-153.81
X339.5Y-156.35
X339.5Y-158.89
X339.5Y-161.43
X339.5Y-163.97
X339.5Y-166.51
X339.5Y-169.05
X339.5Y-171.59
X339.5Y-174.13
X339.5Y-176.67
X339.5Y-179.21
X339.5Y-181.75
X339.5Y-184.29
X339.5Y-186.83
X339.5Y-189.37
X339.5Y-191.91
X339.5Y-194.45
X339.5Y-196.99
X339.5Y-199.53
X342.15Y-301.07
X347.9Y-109.62
X347.9Y-112.16
X347.9Y-114.7
X347.9Y-117.24
X347.9Y-119.78
X347.9Y-122.32
X347.9Y-124.86
X347.9Y-127.4
X351.802Y-301.07
X354.49Y-231.495
X354.49Y-234.035
X354.49Y-236.575
X354.49Y-239.115
X354.49Y-241.655
X354.49Y-244.195
X354.49Y-246.735
X354.49Y-249.275
X354.49Y-251.815
X354.49Y-254.355
X354.49Y-256.895
X354.49Y-259.435
X354.74Y-151.27
X354.74Y-153.81
X354.74Y-156.35
X354.74Y-158.89
X354.74Y-161.43
X354.74Y-163.97
X354.74Y-166.51
X354.74Y-169.05
X354.74Y-171.59
X354.74Y-174.13
X354.74Y-176.67
X354.74Y-179.21
X354.74Y-181.75
X354.74Y-184.29
X354.74Y-186.83
X354.74Y-189.37
X354.74Y-191.91
X354.74Y-194.45
X354.74Y-196.99
X354.74Y-199.53
X355.52Y-109.62
X355.52Y-112.16
X355.52Y-114.7
X355.52Y-117.24
X355.52Y-119.78
X355.52Y-122.32
X355.52Y-124.86
X355.52Y-127.4
X356.45Y-272.502
X356.45Y-284.948
X359.4Y-229.377
X359.4Y-241.823
X360.325Y-151.045
X360.325Y-163.237
X362.05Y-272.552
X362.05Y-284.998
X364.4Y-151.095
X364.4Y-153.635
X364.4Y-156.175
X364.4Y-158.715
X364.4Y-161.255
X364.4Y-163.795
X364.4Y-166.335
X364.4Y-168.875
X364.4Y-171.415
X364.4Y-173.955
X364.4Y-176.495
X364.4Y-179.035
X364.4Y-181.575
X364.4Y-184.115
X364.4Y-186.655
X364.4Y-189.195
X364.4Y-191.735
X364.4Y-194.275
X364.4Y-196.815
X364.4Y-199.355
X365.6Y-109.67
X365.6Y-112.21
X365.6Y-114.75
X365.6Y-117.29
X365.6Y-119.83
X365.6Y-122.37
X365.6Y-124.91
X365.6Y-127.45
X365.95Y-231.555
X365.95Y-234.095
X365.95Y-236.635
X365.95Y-239.175
X365.95Y-241.715
X365.95Y-244.255
X365.95Y-246.795
X365.95Y-249.335
X365.95Y-251.875
X365.95Y-254.415
X366.314Y-272.462
X366.314Y-275.002
X366.314Y-277.542
X366.314Y-280.082
X366.314Y-282.622
X366.314Y-285.162
X366.314Y-287.702
X373.22Y-109.67
X373.22Y-112.21
X373.22Y-114.75
X373.22Y-117.29
X373.22Y-119.83
X373.22Y-122.37
X373.22Y-124.91
X373.22Y-127.45
X373.57Y-231.555
X373.57Y-234.095
X373.57Y-236.635
X373.57Y-239.175
X373.57Y-241.715
X373.57Y-244.255
X373.57Y-246.795
X373.57Y-249.335
X373.57Y-251.875
X373.57Y-254.415
X373.934Y-272.462
X373.934Y-275.002
X373.934Y-277.542
X373.934Y-280.082
X373.934Y-282.622
X373.934Y-285.162
X373.934Y-287.702
X376.8Y-114.62
X376.8Y-126.812
X379.64Y-151.095
X379.64Y-153.635
X379.64Y-156.175
X379.64Y-158.715
X379.64Y-161.255
X379.64Y-163.795
X379.64Y-166.335
X379.64Y-168.875
X379.64Y-171.415
X379.64Y-173.955
X379.64Y-176.495
X379.64Y-179.035
X379.64Y-181.575
X379.64Y-184.115
X379.64Y-186.655
X379.64Y-189.195
X379.64Y-191.735
X379.64Y-194.275
X379.64Y-196.815
X379.64Y-199.355
X380.32Y-113.52
X380.32Y-125.712
X383.7Y-109.67
X383.7Y-112.21
X383.7Y-114.75
X383.7Y-117.29
X383.7Y-119.83
X383.7Y-122.37
X383.7Y-124.91
X383.7Y-127.45
X383.925Y-231.605
X383.925Y-234.145
X383.925Y-236.685
X383.925Y-239.225
X383.925Y-241.765
X383.925Y-244.305
X383.925Y-246.845
X383.925Y-249.385
X383.925Y-251.925
X383.925Y-254.465
X384.0Y-151.145
X384.0Y-163.591
X384.4Y-272.645
X384.4Y-275.185
X384.4Y-277.725
X384.4Y-280.265
X384.4Y-282.805
X384.4Y-285.345
X384.4Y-287.885
X389.625Y-151.095
X389.625Y-153.635
X389.625Y-156.175
X389.625Y-158.715
X389.625Y-161.255
X389.625Y-163.795
X389.625Y-166.335
X389.625Y-168.875
X389.625Y-171.415
X389.625Y-173.955
X389.625Y-176.495
X389.625Y-179.035
X389.625Y-181.575
X389.625Y-184.115
X389.625Y-186.655
X389.625Y-189.195
X389.625Y-191.735
X389.625Y-194.275
X389.625Y-196.815
X389.625Y-199.355
X391.32Y-109.67
X391.32Y-112.21
X391.32Y-114.75
X391.32Y-117.29
X391.32Y-119.83
X391.32Y-122.37
X391.32Y-124.91
X391.32Y-127.45
X391.545Y-231.605
X391.545Y-234.145
X391.545Y-236.685
X391.545Y-239.225
X391.545Y-241.765
X391.545Y-244.305
X391.545Y-246.845
X391.545Y-249.385
X391.545Y-251.925
X391.545Y-254.465
X392.02Y-272.645
X392.02Y-275.185
X392.02Y-277.725
X392.02Y-280.265
X392.02Y-282.805
X392.02Y-285.345
X392.02Y-287.885
X394.175Y-207.34
X394.175Y-220.04
X394.66Y-114.704
X394.66Y-126.896
X395.6Y-272.902
X395.6Y-285.348
X397.658Y-230.904
X397.658Y-243.096
X398.15Y-272.927
X398.15Y-285.373
X398.25Y-113.534
X398.25Y-125.726
X399.425Y-223.095
X401.275Y-272.729
X401.275Y-284.921
X401.7Y-109.72
X401.7Y-112.26
X401.7Y-114.8
X401.7Y-117.34
X401.7Y-119.88
X401.7Y-122.42
X401.7Y-124.96
X401.7Y-127.5
X404.865Y-151.095
X404.865Y-153.635
X404.865Y-156.175
X404.865Y-158.715
X404.865Y-161.255
X404.865Y-163.795
X404.865Y-166.335
X404.865Y-168.875
X404.865Y-171.415
X404.865Y-173.955
X404.865Y-176.495
X404.865Y-179.035
X404.865Y-181.575
X404.865Y-184.115
X404.865Y-186.655
X404.865Y-189.195
X404.865Y-191.735
X404.865Y-194.275
X404.865Y-196.815
X404.865Y-199.355
X406.384Y-231.249
X406.384Y-243.695
X408.949Y-231.249
X408.949Y-243.695
X409.32Y-109.72
X409.32Y-112.26
X409.32Y-114.8
X409.32Y-117.34
X409.32Y-119.88
X409.32Y-122.42
X409.32Y-124.96
X409.32Y-127.5
X412.125Y-223.095
X412.4Y-272.797
X412.4Y-285.243
X412.542Y-114.728
X412.542Y-126.92
X412.81Y-231.249
X412.81Y-243.695
X414.775Y-151.13
X414.775Y-153.67
X414.775Y-156.21
X414.775Y-158.75
X414.775Y-161.29
X414.775Y-163.83
X414.775Y-166.37
X414.775Y-168.91
X414.775Y-171.45
X414.775Y-173.99
X414.775Y-176.53
X414.775Y-179.07
X414.775Y-181.61
X414.775Y-184.15
X414.775Y-186.69
X414.775Y-189.23
X414.775Y-191.77
X414.775Y-194.31
X414.775Y-196.85
X414.775Y-199.39
X415.35Y-231.274
X415.35Y-243.72
X416.4Y-113.42
X416.4Y-125.612
X419.45Y-109.57
X419.45Y-112.11
X419.45Y-114.65
X419.45Y-117.19
X419.45Y-119.73
X419.45Y-122.27
X419.45Y-124.81
X419.45Y-127.35
X419.93Y-231.68
X419.93Y-234.22
X419.93Y-236.76
X419.93Y-239.3
X419.93Y-241.84
X419.93Y-244.38
X419.93Y-246.92
X420.45Y-272.72
X420.45Y-275.26
X420.45Y-277.8
X420.45Y-280.34
X420.45Y-282.88
X420.45Y-285.42
X420.45Y-287.96
X427.07Y-109.57
X427.07Y-112.11
X427.07Y-114.65
X427.07Y-117.19
X427.07Y-119.73
X427.07Y-122.27
X427.07Y-124.81
X427.07Y-127.35
X427.55Y-231.68
X427.55Y-234.22
X427.55Y-236.76
X427.55Y-239.3
X427.55Y-241.84
X427.55Y-244.38
X427.55Y-246.92
X428.07Y-272.72
X428.07Y-275.26
X428.07Y-277.8
X428.07Y-280.34
X428.07Y-282.88
X428.07Y-285.42
X428.07Y-287.96
X429.1Y-251.077
X429.1Y-263.523
X430.015Y-151.13
X430.015Y-153.67
X430.015Y-156.21
X430.015Y-158.75
X430.015Y-161.29
X430.015Y-163.83
X430.015Y-166.37
X430.015Y-168.91
X430.015Y-171.45
X430.015Y-173.99
X430.015Y-176.53
X430.015Y-179.07
X430.015Y-181.61
X430.015Y-184.15
X430.015Y-186.69
X430.015Y-189.23
X430.015Y-191.77
X430.015Y-194.31
X430.015Y-196.85
X430.015Y-199.39
X430.55Y-113.72
X430.55Y-125.912
X431.2Y-272.679
X431.2Y-284.871
X431.223Y-231.417
X431.223Y-243.863
X431.75Y-249.767
X431.75Y-262.213
X433.8Y-272.927
X433.8Y-285.373
X434.1Y-231.443
X434.1Y-243.889
X434.25Y-113.47
X434.25Y-125.662
X434.35Y-249.504
X434.35Y-261.696
X436.05Y-212.72
X436.05Y-225.42
X436.35Y-272.945
X436.35Y-285.391
X436.7Y-231.467
X436.7Y-243.913
X436.95Y-249.729
X436.95Y-262.175
X439.55Y-249.777
X439.55Y-262.223
X439.65Y-109.52
X439.65Y-112.06
X439.65Y-114.6
X439.65Y-117.14
X439.65Y-119.68
X439.65Y-122.22
X439.65Y-124.76
X439.65Y-127.3
X439.78Y-151.27
X439.78Y-153.81
X439.78Y-156.35
X439.78Y-158.89
X439.78Y-161.43
X439.78Y-163.97
X439.78Y-166.51
X439.78Y-169.05
X439.925Y-176.67
X439.925Y-179.21
X439.925Y-181.75
X439.925Y-184.29
X439.925Y-186.83
X439.925Y-189.37
X439.925Y-191.91
X439.925Y-194.45
X440.25Y-272.72
X440.25Y-275.26
X440.25Y-277.8
X440.25Y-280.34
X440.25Y-282.88
X440.25Y-285.42
X440.25Y-287.96
X440.4Y-231.97
X440.4Y-234.51
X440.4Y-237.05
X440.4Y-239.59
X442.45Y-213.27
X442.45Y-225.462
X444.15Y-250.42
X444.15Y-252.92
X445.45Y-202.82
X445.774Y-199.645
X447.27Y-109.52
X447.27Y-112.06
X447.27Y-114.6
X447.27Y-117.14
X447.27Y-119.68
X447.27Y-122.22
X447.27Y-124.76
X447.27Y-127.3
X447.4Y-151.27
X447.4Y-153.81
X447.4Y-156.35
X447.4Y-158.89
X447.4Y-161.43
X447.4Y-163.97
X447.4Y-166.51
X447.4Y-169.05
X447.545Y-176.67
X447.545Y-179.21
X447.545Y-181.75
X447.545Y-184.29
X447.545Y-186.83
X447.545Y-189.37
X447.545Y-191.91
X447.545Y-194.45
X447.825Y-213.27
X447.825Y-225.462
X447.87Y-272.72
X447.87Y-275.26
X447.87Y-277.8
X447.87Y-280.34
X447.87Y-282.88
X447.87Y-285.42
X447.87Y-287.96
X448.0Y-309.72
X448.02Y-231.97
X448.02Y-234.51
X448.02Y-237.05
X448.02Y-239.59
X448.3Y-249.454
X448.3Y-261.646
X450.025Y-184.354
X450.025Y-196.546
X450.45Y-141.144
X450.45Y-153.336
X450.65Y-124.429
X450.65Y-136.621
X450.95Y-249.52
X450.95Y-261.966
X451.5Y-212.895
X451.5Y-225.595
X451.525Y-272.82
X451.525Y-285.266
X452.253Y-231.725
X452.253Y-244.171
X452.675Y-184.354
X452.675Y-196.546
X453.3Y-151.32
X453.3Y-163.512
X453.5Y-249.52
X453.5Y-261.966
X453.525Y-167.995
X453.525Y-180.695
X453.75Y-127.97
X453.75Y-131.57
X453.825Y-135.295
X453.85Y-139.195
X454.15Y-272.852
X454.15Y-285.298
X454.92Y-231.725
X454.92Y-244.171
X455.225Y-184.354
X455.225Y-196.546
X455.7Y-112.47
X455.7Y-116.02
X455.7Y-119.82
X455.75Y-123.97
X456.7Y-272.604
X456.7Y-284.796
X456.774Y-106.17
X456.824Y-108.72
X457.587Y-231.522
X457.587Y-243.714
X457.966Y-199.645
X458.15Y-202.82
X459.925Y-184.528
X459.925Y-196.72
X460.0Y-165.295
X460.0Y-177.487
X460.7Y-309.72
X461.346Y-231.503
X461.346Y-243.695
X462.23Y-142.92
X462.28Y-146.945
X462.355Y-150.895
X462.355Y-154.795
X462.56Y-177.69
X462.6Y-181.62
X462.6Y-186.97
X462.65Y-190.97
X464.35Y-158.574
X464.35Y-170.766
X465.942Y-127.97
X465.942Y-131.57
X466.017Y-135.295
X466.042Y-139.195
X467.1Y-84.42
X467.1Y-96.612
X468.4Y-112.47
X468.4Y-116.02
X468.4Y-119.82
X468.45Y-123.97
X468.966Y-106.17
X469.016Y-108.72
X470.275Y-126.904
X470.275Y-139.096
X471.3Y-84.077
X471.3Y-96.523
X474.25Y-267.895
X474.25Y-280.595
X474.93Y-142.92
X474.98Y-146.945
X475.055Y-150.895
X475.055Y-154.795
X475.26Y-177.69
X475.3Y-181.62
X475.3Y-186.97
X475.35Y-190.97
T4
X128.1Y-302.87
X310.485Y-317.42
X310.485Y-319.96
X313.025Y-317.42
X313.025Y-319.96
X315.565Y-317.42
X315.565Y-319.96
X318.105Y-317.42
X318.105Y-319.96
X320.645Y-317.42
X320.645Y-319.96
X323.185Y-317.42
X323.185Y-319.96
X325.725Y-317.42
X325.725Y-319.96
X328.265Y-317.42
X328.265Y-319.96
X330.805Y-317.42
X330.805Y-319.96
X333.345Y-317.42
X333.345Y-319.96
X335.885Y-317.42
X335.885Y-319.96
X338.425Y-317.42
X338.425Y-319.96
X340.965Y-317.42
X340.965Y-319.96
X343.505Y-317.42
X343.505Y-319.96
X346.045Y-317.42
X346.045Y-319.96
X348.585Y-317.42
X348.585Y-319.96
X351.125Y-317.42
X351.125Y-319.96
X353.665Y-317.42
X353.665Y-319.96
X356.205Y-317.42
X356.205Y-319.96
X358.745Y-317.42
X358.745Y-319.96
X361.285Y-317.42
X361.285Y-319.96
X363.825Y-317.42
X363.825Y-319.96
X366.365Y-317.42
X366.365Y-319.96
X368.905Y-317.42
X368.905Y-319.96
X371.445Y-317.42
X371.445Y-319.96
X379.55Y-301.17
X379.55Y-303.71
X382.09Y-301.17
X382.09Y-303.71
X384.63Y-301.17
X384.63Y-303.71
X387.17Y-301.17
X387.17Y-303.71
X389.71Y-301.17
X389.71Y-303.71
X392.25Y-301.17
X392.25Y-303.71
X394.79Y-301.17
X394.79Y-303.71
X397.33Y-301.17
X397.33Y-303.71
X399.87Y-301.17
X399.87Y-303.71
X402.41Y-301.17
X402.41Y-303.71
X404.95Y-301.17
X404.95Y-303.71
X407.49Y-301.17
X407.49Y-303.71
X410.03Y-301.17
X410.03Y-303.71
X412.57Y-301.17
X412.57Y-303.71
X415.11Y-301.17
X415.11Y-303.71
X417.65Y-301.17
X417.65Y-303.71
X420.19Y-301.17
X420.19Y-303.71
X422.73Y-301.17
X422.73Y-303.71
X425.27Y-301.17
X425.27Y-303.71
X427.81Y-301.17
X427.81Y-303.71
X430.35Y-301.17
X430.35Y-303.71
X432.89Y-301.17
X432.89Y-303.71
X435.43Y-301.17
X435.43Y-303.71
X437.97Y-301.17
X437.97Y-303.71
X440.51Y-301.17
X440.51Y-303.71
T5
X114.58Y-90.33
X114.58Y-92.87
X114.58Y-95.41
X128.75Y-87.24
X128.75Y-97.4
X240.758Y-101.42
X252.95Y-101.42
X404.908Y-101.32
X417.1Y-101.32
X463.62Y-276.37
X463.67Y-304.87
X466.16Y-276.37
X466.21Y-304.87
X468.7Y-276.37
X468.75Y-304.87
T6
X122.3Y-82.32
X122.3Y-100.32
X217.805Y-108.712
X217.805Y-127.508
X235.675Y-108.42
X235.675Y-126.42
X258.734Y-101.47
X278.8Y-101.47
X342.773Y-109.601
X342.773Y-127.601
X360.5Y-109.22
X360.5Y-127.22
X378.45Y-101.27
X398.516Y-101.27
X422.584Y-101.27
X442.65Y-101.27
T7
X96.0Y-110.17
X96.0Y-115.25
X96.0Y-117.79
X96.0Y-120.33
X96.0Y-122.87
X96.0Y-125.41
X199.76Y-101.215
X202.3Y-101.215
X207.38Y-101.215
X209.92Y-101.215
X212.46Y-101.215
X215.0Y-101.215
X262.6Y-77.588
X268.863Y-86.533
X416.15Y-77.588
X422.413Y-86.533
X448.6Y-101.37
X456.22Y-101.37
X458.76Y-101.37
X461.3Y-101.37
X463.84Y-101.37
T8
X151.2Y-87.97
X156.2Y-87.97
X161.2Y-87.97
X166.2Y-87.97
X174.8Y-88.17
X179.8Y-88.17
X184.8Y-88.17
X189.8Y-88.17
T9
X155.1Y-78.87
X159.1Y-78.87
X163.1Y-78.87
X163.28Y-69.97
X167.1Y-78.87
X171.1Y-78.87
X175.1Y-78.87
X178.52Y-69.97
X183.1Y-78.87
X187.1Y-78.87
T10
X207.15Y-77.028
X207.15Y-87.028
T11
X133.9Y-296.17
X150.9Y-277.92
X150.9Y-314.42
X169.4Y-296.17
T12
X466.16Y-256.05
X466.21Y-284.55
T13
X465.5Y-78.32
T14
X254.831Y-89.681
X279.569Y-72.359
X408.381Y-89.681
X433.119Y-72.359
M30
